<svg id="Capa_1" enable-background="new 0 0 511.225 511.225" height="512" viewBox="0 0 511.225 511.225" width="512" xmlns="http://www.w3.org/2000/svg"><path id="XMLID_820_" d="m511.225 294.237h-42.867v-33.18c0-68.487-35.152-135.439-92.08-176.109-.015-.049-.026-.099-.042-.148-3.884-12.532-13.007-22.708-25.03-27.919-30.75-13.327-63.423-20.085-97.111-20.085s-66.361 6.758-97.111 20.085c-12.023 5.211-21.146 15.387-25.03 27.918-.012.038-.021.077-.032.115-27.494 18.548-50.237 43.362-66.007 72.096-17.065 31.096-26.086 67.075-26.086 104.046v33.18h-39.829v136.388h65.024c4.684 24.901 26.58 43.803 52.82 43.803 29.644 0 53.761-24.117 53.761-53.76v-116.473c0-29.644-24.117-53.76-53.761-53.76-20.968 0-39.158 12.074-48.017 29.628v-19.004c0-56.907 23.649-107.336 65.579-141.424.451.829.921 1.649 1.426 2.454 8.492 13.523 22.924 21.11 37.966 21.109 6.031 0 12.162-1.22 18.046-3.766 19.374-8.384 39.981-12.634 61.25-12.634s41.876 4.25 61.25 12.634c20.555 8.895 44.112 1.603 56.012-17.342.407-.648.792-1.306 1.164-1.97 41.049 35.478 65.837 87.701 65.837 140.939v13.741c-9.612-14.657-26.178-24.365-44.978-24.365-29.644 0-53.761 24.117-53.761 53.76v116.475c0 29.643 24.117 53.76 53.761 53.76 26.241 0 48.136-18.903 52.82-43.803h65.024v-136.389zm-481.225 30h34.085v76.388h-34.085zm87.845-43.803c13.102 0 23.761 10.659 23.761 23.76v116.475c0 13.101-10.659 23.76-23.761 23.76s-23.76-10.659-23.76-23.76v-116.475c0-13.101 10.658-23.76 23.76-23.76zm228.107-174.303c-3.965 6.313-11.825 8.739-18.693 5.766-23.158-10.021-47.773-15.101-73.164-15.101s-50.006 5.081-73.164 15.102c-6.868 2.971-14.729.546-18.693-5.767-2.369-3.772-2.947-8.194-1.628-12.451 1.31-4.227 4.259-7.52 8.304-9.273 26.963-11.686 55.622-17.611 85.182-17.611s58.219 5.925 85.182 17.611c4.045 1.753 6.994 5.046 8.304 9.273 1.317 4.257.739 8.679-1.63 12.451zm47.428 338.297c-13.102 0-23.761-10.659-23.761-23.76v-116.474c0-13.102 10.659-23.76 23.761-23.76s23.76 10.659 23.76 23.76v116.475c0 13.101-10.659 23.759-23.76 23.759zm87.845-43.803h-34.085v-76.388h34.085z"/></svg>