<svg width="150px" height="150px" aria-hidden="true" focusable="false" id="Layer_4" data-name="Layer 4" xmlns="http://www.w3.org/2000/svg" viewBox="0 0 563.8 600"><defs><style>.cls-1{fill:#ecbcb4;}.cls-2{fill:#594a42;}.cls-3{fill:#3c2415;}.cls-4{fill:#c58c85;}.cls-5{fill:#00a651;}.cls-6{fill:#fff;}.cls-7{fill:#503335;}</style></defs><path class="cls-1" d="M427.49,386.76c-6.44,35.08-16.33,72.18-43.3,95.51C368.28,496,347.64,503.62,326.74,506s-42.12-.14-62.62-4.83c-22-5.05-44-12.88-61.27-27.51-25.84-22-37.53-56-46.61-88.66-13.44-48.36-23.56-100.43-7.93-148.13a142.58,142.58,0,0,1,12.24-27.2l-3.73,3.84c7.55-17.25,15.3-34.82,27.87-48.85,20.09-22.41,50.65-33.28,80.69-35.17s60,4.28,89.25,11.24c12.16,2.89,24.93,6.27,33.75,15.12,5.67,5.69,9.17,13.13,12.56,20.41,11.39,24.47,22.86,49.15,29.09,75.41C440.51,295.82,435.69,342.14,427.49,386.76Z"/><path class="cls-2" d="M191.05,204.92a82.17,82.17,0,0,1,65.58-31.45,73.56,73.56,0,0,1,17.89,2.41c7.74,2,15.08,5.29,23.07,6.31,16.09,2.06,32.37-5.16,48-8s34.19-2.88,47.06,8c7.33,6.19,18-4.37,10.6-10.61-12.26-10.38-27.95-14.51-43.85-14a142.21,142.21,0,0,0-27,4c-8.54,2-17.17,5-25.91,5.83s-16.8-2.73-25.07-5.22a91.59,91.59,0,0,0-21.23-3.66,95.71,95.71,0,0,0-41.36,7.15,93.26,93.26,0,0,0-38.41,28.57c-2.51,3.22-3.08,7.46,0,10.61,2.56,2.62,8.12,3.19,10.6,0Z"/><path class="cls-2" d="M177,198.63l-23.43,67.69c-6.56,19-14.2,41.84,2,58.33v-10.6l-10.65,11.22L154,324.1a4.68,4.68,0,0,1-2.31-2.44,7.68,7.68,0,0,0-8.47-3.45c-7,1.52-11.76,9.47-8.94,16.29,3.57,8.67,17,5.65,14.46-4a170,170,0,0,1,8.17-108.87c2.61-6.18-5.88-11.69-11-8.47s-7.4,7.51-8,13.34c-.82,8.36,13.16,10.29,14.73,2,1.41-7.45-.27-13.68-5-19.55l1.17,9.09L168.4,181c6.28-11.89,11.95-24.5,19.48-35.66,12.13-18,33.73-25.51,54.16-29.15,12.5-2.22,25.22-2.91,37.83-4.19a236,236,0,0,0,40.5-7.47c5.43-1.53,9.16-1.65,13.87,1.65s8.46,7.48,13.06,10.77a54,54,0,0,0,15.58,7.61c6.51,2,13.27,2,19.95,3,11.1,1.61,21,8.55,25.25,19.13a20.92,20.92,0,0,1,1.08,13.94c-.85,2.88-2.77,7.11-6.26,7.51-4,.46-7.5,3.12-7.5,7.5,0,3.7,3.45,8,7.5,7.5,12-1.36,19.69-10.59,21.5-22.24,1.85-11.89-2.63-23.49-10.31-32.52-8.55-10.05-20.18-14.61-33-16-7.1-.78-13.92-1.42-20.38-4.75-6.15-3.18-10.76-8.14-16.16-12.34-4.73-3.66-9.86-6.36-15.9-6.9-7.79-.68-15.46,2.88-22.91,4.62-14.67,3.43-29.73,4.31-44.68,5.77-25.94,2.53-52.86,7.25-73.4,24.56-12.24,10.32-19,25-26.29,38.89l-25.52,48.29c-1.71,3.24-1,6.37,1.17,9.09a6.18,6.18,0,0,1,1.14,4.95l14.73,2a.56.56,0,0,1,.54-.39l-11-8.47a183.33,183.33,0,0,0-8.17,116.84l14.46-4a24.82,24.82,0,0,1-1.53,2.16l-8.47-3.45a19.8,19.8,0,0,0,7.69,7.82,7.64,7.64,0,0,0,9.09-1.17l10.65-11.23a7.63,7.63,0,0,0,0-10.6c-5.75-5.86-6.26-14.4-4.8-22.09,1.89-10,6-19.62,9.29-29.17l20.82-60.17c3.17-9.14-11.32-13.07-14.46-4Z"/><path class="cls-2" d="M181.85,188.57a168.44,168.44,0,0,0,30.88-34.71c4.07-6.05-4.17-14.64-10.26-10.26a164.33,164.33,0,0,0-42.39,44.31L173,195.48l16.26-37-13.71-5.78a49.75,49.75,0,0,1-9.18,17l12.54,7.29A136.39,136.39,0,0,1,193,142.93l-13-7.57L169.18,160.1c-3.24,7.35,5.32,15.56,11.78,9.09a162.76,162.76,0,0,0,21.06-26c4.35-6.65-4-13.48-10.26-10.26-6,3.11-7,12-1.38,16.08,6.56,4.78,14.93-.84,14.88-8.36,0-7.27-10.36-10.44-14-3.78-9,16.56-23.58,28.9-34.84,43.82-11.45,15.17-19.14,33.94-14.66,53.07,1.3,5.51,8.7,7.25,12.54,3.31a174.3,174.3,0,0,0,36.14-55L176,178c-7.49,18.06-13.77,36.57-17.29,55.85l14.47,4a300.53,300.53,0,0,0,4.41-41.9c.3-9-11.85-9.42-14.73-2l-17.74,45.74,14.46,4q5-27,7.69-54.25c.84-8.57-12.55-9.95-14.74-2q-14.28,51.95-27.17,104.24c-2,8.19,9.29,13.21,13.71,5.78,10.59-17.81,14.1-38.17,17.14-58.36l-14.73-2a419.85,419.85,0,0,1-3,81l14.73,2L155,279c.45-10.83-1.41-25.09,5.47-34.25L146.71,243l1.65,9.09c1.72,9.48,16.18,5.46,14.47-4L161.18,239c-1.29-7.08-10.28-6.37-13.71-1.79-7.94,10.57-6.84,25.39-7.36,37.91l-1.87,45c-.34,8.27,13.57,10.47,14.73,2a438.66,438.66,0,0,0,3.51-84.94c-.46-7.9-13.41-10.83-14.74-2C138.91,254,136,273.28,126.12,289.9l13.7,5.78Q152.7,243.38,167,191.44l-14.73-2q-2.51,25.29-7.15,50.26c-1.78,9.58,11,13,14.46,4L177.32,198l-14.73-2a272.56,272.56,0,0,1-3.88,37.92c-1.65,9.42,12.73,13.5,14.47,4,3.52-19.27,9.79-37.78,17.29-55.84,1.56-3.77-1.7-8.22-5.24-9.23-4.31-1.23-7.68,1.52-9.23,5.24a154.76,154.76,0,0,1-32.28,48.4l12.54,3.31c-3.9-16.64,5.88-32.94,16.17-45.23,11-13.1,23.57-24.94,31.81-40.1l-14-3.79v1.14l1-3.78,1-1.2L198,136l3.25,3.51v4l-2,2.33-10.26-10.26a144.55,144.55,0,0,1-18.72,23l11.78,9.08L193,142.93c3.79-8.62-8-16.13-13-7.57a151.69,151.69,0,0,0-15.59,37.74c-1.78,6.79,7.53,13.3,12.54,7.29a68.7,68.7,0,0,0,13-23.66c2.49-7.94-10.24-13.66-13.71-5.78l-16.26,37c-3.82,8.68,7.58,15.85,12.95,7.57a145.29,145.29,0,0,1,37-38.93l-10.26-10.26A154.32,154.32,0,0,1,171.24,178c-7.38,6.25,3.28,16.81,10.61,10.61Z"/><path class="cls-2" d="M224.78,134.15a142.27,142.27,0,0,0-29.05,28.73c-5.3,7,5.83,14.74,11.78,9.09l11.21-10.65c6.29-6-1.72-15.83-9.09-11.78a210,210,0,0,0-21.49,13.51c-6.4,4.6-17.12,10.74-10.15,19.78,5.77,7.48,14.35,3.92,20.92,0l23.84-14.37-7.57-13a53.31,53.31,0,0,1-20.1,8l5.78,13.71a108.21,108.21,0,0,1,56.33-12.41l-2-14.74a31.21,31.21,0,0,1-13.62,1v15q32.54-1.22,65.08-.23c8.24.25,10.49-13.55,2-14.74l-39.17-5.45v14.46l11.22-4.45c3.12-1.24,5.51-3.67,5.51-7.23,0-3-2.3-6.75-5.51-7.23l-14.83-2.25,4.49,11,4.54-8.2a7.58,7.58,0,0,0-6.47-11.29l-34.34-1.34-16.67-.66-7.85-.31c-1.38-.05-2.79-.16-4.17-.15-2,0-.81-1.09-.24.24L204,137.29a16.77,16.77,0,0,1,9.77-4.43l-4-14.47-5.36,1.9c-7.46,2.65-7,15.41,2,14.74a173.09,173.09,0,0,0,50.51-11.37c8.77-3.44,5.41-17.44-4-14.46l-16.4,5.19c-7.69,2.43-6.82,15.4,2,14.73l40.26-3.06c9.55-.72,9.66-15.67,0-15l-22.06,1.53v15a47,47,0,0,1,15.46,1.35V114.48l-24.11,7.64c-5.48,1.73-8.15,11-1.79,13.7l9.25,3.94,1.79-13.71c-9.61,3.82-19,8-28.28,12.7-6.18,3.12-3.87,11.72,1.79,13.71l8.37,2.93V140.93a55.34,55.34,0,0,1-16,.27l2,14.73L245,152.26l-4-14.46-4.89,1.29c-8.28,2.18-6.41,14.53,2,14.73l30.6.71v-15l-33.82.36-15.91.17c-2.83,0-5.71.25-8.54.08-.09,0-1.49-.13-1.54-.12-1.43.43-.65-2,.19,1.09l-1.92,7.29c1.88-2.38,6.64-2,9.74-2.31q6.9-.69,13.81-1.31,14.79-1.34,29.62-2.36,29.64-2,59.36-2.84v-15L296,127.67c-4,.52-7.5,3.08-7.5,7.5,0,3.7,3.45,8,7.5,7.5,9.21-1.06,17.23,3.9,25.47,7.27a110.93,110.93,0,0,0,28,7.09l-2-14.73a480.1,480.1,0,0,0-55.05,14.94c-7.54,2.54-6.9,15.56,2,14.74a54.36,54.36,0,0,0,28.3-10.55c5-3.8,4.83-11.67-1.79-13.71A277.65,277.65,0,0,0,275.43,138l2,14.74a75,75,0,0,1,25.7-5.23v-15c-1.67.06-2.48,0-3.69-1.2l1.93,7.29A36,36,0,0,1,316.19,119c6.52-4.24,3.54-13.29-3.79-14a178.23,178.23,0,0,0-39.45.68c-9.31,1.19-9.95,14.68,0,15,6.82.21,12.69,5.44,19.27,7,7.27,1.69,14.09-.23,20.43-3.86,4.34-2.49,9.82-7.89,15.16-7.62,3.06.16,6,3,8.4,4.62a50.54,50.54,0,0,0,11.11,5.47c7.71,2.78,15.92,3.7,23.86,5.57a65.31,65.31,0,0,1,22.23,9.73,47.72,47.72,0,0,1,8.57,7.29c1.3,1.45.91,1.95,2.11.77a4.79,4.79,0,0,1-2.45.9c-7.24,1.27-15.79-1.31-23-2.22-20.79-2.63-41.94-4-62.35,1.78-7.86,2.24-6.7,15.43,2,14.73a283.87,283.87,0,0,1,78.22,4.37l-3.31-12.54a11.88,11.88,0,0,0-2,15.62c3.32,4.61,9.72,5,12.95,0,4.69-7.28,3.92-16.69-.73-23.82S390.79,137.32,383,134.36c-18.3-6.91-37.82-9.74-57.06-12.59-4-.6-8,1-9.23,5.24-1,3.64,1.26,8.49,5.24,9.23a99.88,99.88,0,0,1,23.15,7c3.71,1.68,8,1,10.26-2.69,1.95-3.26.95-8.51-2.69-10.26a69.43,69.43,0,0,1-19.87-14.16L323.68,128l47.84,26.44,3.78-14a118,118,0,0,1-26.06-3.3v14.47l11.1-3.59a7.6,7.6,0,0,0,1.79-13.71A177.37,177.37,0,0,0,313,112.18c-7.06-2-12.87,7.36-7.3,12.53,5.19,4.82,11.3,5.94,17.74,8.24,2.63.94,8,4.56,3.6,7.63-7.83,5.52-.34,18.53,7.57,12.95,8.45-6,11.61-17.5,5.62-26.44-2.89-4.31-7.42-6.71-12.19-8.4-3.83-1.35-8.67-1.74-11.73-4.59L309,126.64a164.11,164.11,0,0,1,45.53,20.6l1.8-13.7-11.11,3.58c-6.74,2.18-7.52,12.65,0,14.47a137.2,137.2,0,0,0,30.05,3.83c7.37.12,10.3-10.38,3.79-14L331.25,115c-7.41-4.1-15.13,5.6-9.08,11.78a81.36,81.36,0,0,0,22.9,16.5l7.57-12.95a115.45,115.45,0,0,0-26.73-8.57l-4,14.47c9.28,1.37,80.94,10.4,69.3,28.46h12.95a13.14,13.14,0,0,1-.35,2.56c4.2-3.53,2-11.48-3.31-12.54a298.8,298.8,0,0,0-82.21-4.9l2,14.73c20.3-5.78,41.46-3.46,62.07-.77,8.24,1.08,17.35,3.45,25.49.59,8.44-3,13.14-11.48,9.14-20-3.82-8.12-13.33-14.53-20.9-18.84-8.29-4.73-17.24-7.52-26.55-9.37s-18.45-3.33-26.43-8.79c-7.37-5-14.8-7.94-23.59-4.65-6.93,2.6-13.48,10-20.95,10.64-3.88.31-7.7-2.15-11.09-3.71-4.74-2.17-9.27-3.81-14.53-4v15A178.23,178.23,0,0,1,312.4,120l-3.79-14a52.29,52.29,0,0,0-21.72,28.52,7.45,7.45,0,0,0,1.93,7.3,19.08,19.08,0,0,0,14.3,5.6c9.6-.4,9.69-15.23,0-15a87.55,87.55,0,0,0-29.68,5.76c-8.18,3.16-6.43,13.62,2,14.73a254.66,254.66,0,0,1,41.46,9.23l-1.79-13.71a40.23,40.23,0,0,1-20.73,8.5l2,14.73a475.88,475.88,0,0,1,55-14.94c3.65-.76,5.84-4.77,5.38-8.23-.54-4-3.6-6-7.37-6.51a98.17,98.17,0,0,1-27.12-7.93c-8.39-3.73-16.95-7.51-26.35-6.43v15l23.8-3.09c4-.52,7.5-3.07,7.5-7.5a7.59,7.59,0,0,0-7.5-7.5q-28.72.8-57.38,2.71c-18.13,1.22-36.64,2.06-54.61,4.82-6.75,1-15.45,5.89-12.8,14,2.25,6.91,9.62,8.88,16.11,9,19.19.42,38.5-.41,57.69-.62,9.66-.1,9.66-14.78,0-15l-30.6-.71,2,14.73,4.89-1.29c9.46-2.49,5.38-16.19-4-14.46l-19.89,3.67c-3.66.67-5.83,4.83-5.37,8.23.53,4,3.59,6.06,7.36,6.5a68.31,68.31,0,0,0,20-.81c7.9-1.39,6.32-12.24,0-14.46L234.81,138l1.8,13.71c8.07-4.08,16.29-7.84,24.7-11.19,5.13-2,8.43-10.88,1.79-13.71l-9.25-3.93-1.79,13.71,24.11-7.64c6.86-2.17,7.4-12.54,0-14.46a60.18,60.18,0,0,0-19.45-1.89c-9.57.68-9.65,15.67,0,15l22.06-1.53v-15l-40.26,3.06,2,14.73,16.4-5.19-4-14.46A160.26,160.26,0,0,1,206.4,120l2,14.73,5.35-1.9c9.28-3.29,5.45-15.84-4-14.47a30.05,30.05,0,0,0-16.4,8.29c-2.64,2.51-2.49,6-1.17,9.09,2.31,5.36,8.15,6.8,13.43,7.19,6.84.51,13.75.54,20.61.81l42.18,1.65-6.48-11.28-4.55,8.19c-2.1,3.8-.49,10.27,4.49,11l14.82,2.25V141.14l-11.22,4.45c-3.12,1.24-5.51,3.67-5.51,7.23,0,3,2.3,6.79,5.51,7.23l39.17,5.46,2-14.73q-32.53-1-65.08.23c-9.94.38-9.31,13.76,0,15a41.83,41.83,0,0,0,17.61-1.49c8.23-2.46,6.43-14.33-2-14.73a123.49,123.49,0,0,0-63.91,14.45c-7.93,4.22-2.15,15.16,5.78,13.71a64.2,64.2,0,0,0,23.69-9.52c8-5.25.77-18-7.57-13l-14.8,8.92-6.57,4c-1.37.82-2.74,1.66-4.12,2.47-.48.3-1,.6-1.48.88-1.42.57-.88,1.16,1.6,1.78l1,3.78-.08-1.15-2.2,5.31a201.06,201.06,0,0,1,28.64-18.94l-9.08-11.78L196.9,161.36l11.78,9.09a118.22,118.22,0,0,1,23.67-23.35c3.28-2.43,4.85-6.47,2.69-10.26-1.84-3.23-7-5.09-10.26-2.69Z"/><path class="cls-2" d="M301.19,120.48A46.59,46.59,0,0,1,283,119.3c-9.33-2.54-13.31,11.93-4,14.46a57.77,57.77,0,0,0,22.2,1.72c4-.49,7.5-3.1,7.5-7.5,0-3.67-3.45-8-7.5-7.5Z"/><path class="cls-2" d="M296,169.83c11-2,22.43-5.51,28.31-15.83,4.79-8.4-8.16-16-12.95-7.57-3.73,6.54-12.6,7.71-19.35,8.94-9.49,1.72-5.47,16.18,4,14.46Z"/><path class="cls-2" d="M307.62,171.44a52.5,52.5,0,0,0,23.74-22c4.76-8.41-8.19-16-12.95-7.57a39.18,39.18,0,0,1-18.36,16.61c-3.68,1.68-4.59,7-2.69,10.26,2.22,3.78,6.56,4.38,10.26,2.69Z"/><path class="cls-2" d="M305,169.87a42.66,42.66,0,0,0,30.4-23.21c4.17-8.66-8.76-16.27-12.95-7.57A28.77,28.77,0,0,1,301,155.41c-9.49,1.73-5.47,16.19,4,14.46Z"/><path class="cls-2" d="M328.69,160.06l13.16-4.37a7.66,7.66,0,0,0,5.24-9.22c-1-3.76-5.36-6.52-9.23-5.24l-13.16,4.36a7.68,7.68,0,0,0-5.24,9.23c1,3.76,5.37,6.52,9.23,5.24Z"/><path class="cls-3" d="M157.65,258.18A103.88,103.88,0,0,0,155.32,276c-.09,2.06,2.87,3.44,4.26,1.77,3.5-4.21,5.08-9.32,6.18-14.6,1.06-5,1.78-10.29,4.28-14.86l-4.65-1.26a132.88,132.88,0,0,1-3.81,20.35c-.83,3.12,3.86,4.39,4.83,1.32q9.38-29.76,20-59.13a2.5,2.5,0,0,0-4.83-1.33q-10.58,29.35-20,59.14l4.83,1.32a141,141,0,0,0,4-21.67c.26-2.52-3.53-3.33-4.66-1.26-2.54,4.64-3.52,9.81-4.56,14.94-.95,4.69-2,9.73-5.12,13.5l4.27,1.77a96.56,96.56,0,0,1,2.15-16.5c.69-3.14-4.13-4.48-4.82-1.33Z"/><path class="cls-3" d="M270.4,172.91c4.9-1.66,9.53,1.55,13.41,4.19,4.42,3,9,5.46,14.38,6.37,11.54,2,22.29-3.34,32.83-7.29L350.08,169a2.56,2.56,0,0,0,1.75-3.07,2.51,2.51,0,0,0-3.07-1.75c-11.08,4.15-22.08,8.57-33.27,12.41-5,1.73-10.21,2.88-15.55,2.09s-9.61-3.23-14-6.19c-4.91-3.33-10.83-6.49-16.9-4.44-3,1-1.73,5.85,1.33,4.82Z"/><path class="cls-3" d="M303.52,181.37q12.14-8.72,23.77-18.1c1.64-1.32.31-4.45-1.77-4.26a6.66,6.66,0,0,0-6,8c.45,2.38,4.38,2.4,4.82,0,.32-1.78-.55-3.49-2.48-3.68a4.5,4.5,0,0,0-4,1.91c-.81,1.14-1.5,2.33-2.41,3.39a28.54,28.54,0,0,1-3.56,3.48l4.18,2.43a6,6,0,0,1,3.12-3.42l-3.68-2.82a3.91,3.91,0,0,1-1.27,2.35c-2.06,1.88.7,5.61,3,3.93l9.54-6.89-3.42-.9c0-.07-.46.45.05-.22-1.53,2-.16,4.65,2.43,4.18l3.91-.7-3.16-2.41-.32,2.93a2.51,2.51,0,0,0,3.17,2.41,23.38,23.38,0,0,0,12.76-11.43l-4.57-1.92-.64,4.47a2.62,2.62,0,0,0,1.15,2.82,2.49,2.49,0,0,0,3-.39,7.42,7.42,0,0,1,3.81-2.53c1.89-.62,3.85-1,5.78-1.38,3.81-.83,7.91-2.23,9.69-6a2.57,2.57,0,0,0-.9-3.42,2.53,2.53,0,0,0-3.42.9,4,4,0,0,1-1.28,1.74c-.3.27,0,0-.18.14l-.54.33c-.21.12-1,.49-.81.42a29.34,29.34,0,0,1-5.32,1.4c-3.73.78-7.88,1.74-10.37,4.9l4.18,2.43.64-4.47A2.53,2.53,0,0,0,341,158a2.49,2.49,0,0,0-3.13,1,18.29,18.29,0,0,1-9.77,9.13l3.16,2.41.32-2.93c.19-1.76-1.74-2.66-3.17-2.41l-3.91.7,2.44,4.18a5.3,5.3,0,0,0,.73-5.84,2.5,2.5,0,0,0-3.42-.9l-9.55,6.89,3,3.92a8.3,8.3,0,0,0,2.56-4.55,2.53,2.53,0,0,0-3.67-2.82,11,11,0,0,0-5.41,6.4,2.5,2.5,0,0,0,1.15,2.82,2.61,2.61,0,0,0,3-.39,28.82,28.82,0,0,0,4.08-4.11c.66-.81,1.28-1.64,1.86-2.51.13-.2.49-1,.66-1-.44.38-.48.46-.12.22-.53.32-1.1.17-1.71-.44l-.65-1.1,0,.16v-1.33l0,.2h4.82a1.67,1.67,0,0,1,1.23-1.66l-1.77-4.27q-11.13,9-22.75,17.31a2.57,2.57,0,0,0-.9,3.42,2.52,2.52,0,0,0,3.42.9Z"/><path class="cls-3" d="M327.92,165.32a24.43,24.43,0,0,1-17.54,6.07l1.27,4.66,24.86-10.5-3-3.93c-2.71,3-6.28,4.91-10,6.47a66.27,66.27,0,0,1-13,4.43c-8.09,1.58-15.73-2.49-23-5.34A40.13,40.13,0,0,0,274,164c-3.22-.08-3.22,4.92,0,5,8.36.22,15.76,4.95,23.57,7.34a29.29,29.29,0,0,0,13.14,1.17c4.76-.72,9.33-2.65,13.76-4.48,4.61-1.9,9.15-4.14,12.54-7.9a2.5,2.5,0,0,0,.2-3.28,2.56,2.56,0,0,0-3.23-.65l-24.86,10.5a2.52,2.52,0,0,0-1.15,2.83,2.59,2.59,0,0,0,2.41,1.83,29.5,29.5,0,0,0,21.08-7.54c2.4-2.14-1.14-5.67-3.54-3.53Z"/><path class="cls-3" d="M270.43,172.09c4.81-1.91,9.68.85,14,2.92A41.33,41.33,0,0,0,301,179.6c2.87.13,3.33-4.13.66-4.91l-31-9c-2.77-.81-4.3,3.08-1.92,4.56l11.42,7.14,1.92-4.57a38,38,0,0,1-8.38-4.87,2.51,2.51,0,0,0-3.42.89,2.56,2.56,0,0,0,.9,3.42,41.92,41.92,0,0,0,9.57,5.38,2.47,2.47,0,0,0,2.95-1.44,2.53,2.53,0,0,0-1-3.13l-11.42-7.13-1.93,4.57,31,9,.67-4.92a31.47,31.47,0,0,1-8.44-1.52,62.49,62.49,0,0,1-7.54-3.32c-4.89-2.34-10.49-4.63-15.88-2.49a2.58,2.58,0,0,0-1.75,3.07,2.52,2.52,0,0,0,3.08,1.75Z"/><path class="cls-3" d="M351.07,174.11a38.75,38.75,0,0,1,26.28-1.35c8.61,2.61,16,9,25.31,9,4.51,0,9.14-1.42,12.19-4.87,2.13-2.4-1.4-5.95-3.54-3.54-5.48,6.2-14.74,2.73-20.89-.31-4.17-2-8.29-4.2-12.79-5.43a43.45,43.45,0,0,0-13.76-1.48,44.59,44.59,0,0,0-15.33,3.63,2.51,2.51,0,0,0-.89,3.42,2.57,2.57,0,0,0,3.42.9Z"/><path class="cls-3" d="M353.85,168.2a63.89,63.89,0,0,0-19.05,3.25,2.57,2.57,0,0,0-1.75,3.08,2.52,2.52,0,0,0,3.07,1.74,59.43,59.43,0,0,1,17.73-3.07,2.5,2.5,0,0,0,0-5Z"/><path class="cls-3" d="M359.59,168.66a21.34,21.34,0,0,0,10.76-8.92,3.49,3.49,0,0,0,.71-2.74,2.8,2.8,0,0,0-1.93-2,3.17,3.17,0,0,0-3.71,2.33,3.11,3.11,0,0,0,3.17,3.79,5.17,5.17,0,0,0,2.27-.65l.32-.18q.36-.18-.06,0c.28-.07.25-.09-.09,0a1.74,1.74,0,0,1-1-.43l-.39-3a25.45,25.45,0,0,0-2.27,5.48c-.48,1.73,1.25,3.73,3.08,3.08l4.2-1.51a2.56,2.56,0,0,0,1.75-3.08,2.53,2.53,0,0,0-3.08-1.74l-4.2,1.51,3.07,3.07a16.86,16.86,0,0,1,1.77-4.28,2.57,2.57,0,0,0-.39-3,3.65,3.65,0,0,0-3.71-.85,8.13,8.13,0,0,0-1.44.65c-.34.19-.13,0,.14,0l1.5,2.91a1.85,1.85,0,0,1-1.63.88l-1.26-.34-.36-.28-.65-1.11.05.12.25-1.93c-.26.48-.53.95-.82,1.4l-.39.58-.28.38c.16-.2.15-.18,0,0a19.67,19.67,0,0,1-2.09,2.19l-.52.46-.37.29c.17-.13.19-.14.05,0-.41.3-.83.58-1.25.85s-.94.55-1.42.79l-.63.3c-.27.12-.29.13-.05,0l-.43.17a2.5,2.5,0,1,0,1.33,4.82Z"/><path class="cls-3" d="M365.54,255.05c3.38-8.48,10.87-14.22,19.57-16.38a64.71,64.71,0,0,1,15.46-1.47c3.19,0,9.66-1.13,12.12,1.41,6.72,6.95,17.32-3.66,10.6-10.61-4.92-5.09-11.58-5.68-18.3-5.78-8-.11-16.09.05-23.87,2-14.15,3.52-24.71,13.46-30,26.86-1.51,3.79,1.65,8.2,5.24,9.23,4.25,1.21,7.73-1.5,9.22-5.24Z"/><path class="cls-3" d="M205.07,285.78c6.36-8.4,13.76-18.36,24.26-21.65,12.7-4,28.2.69,41,2.58,4,.6,8-1,9.22-5.23,1-3.53-1.23-8.64-5.24-9.23-15.93-2.36-34.69-7.86-50.4-2.1-13.93,5.1-23.12,16.61-31.79,28.06-2.47,3.25-.49,8.35,2.69,10.26,3.82,2.29,7.83.52,10.26-2.69Z"/><path class="cls-3" d="M330.61,284.78c4,14.84,3.59,31.55,13.28,44.32a30.8,30.8,0,0,0,8.89,8.09c2.78,1.64,5.3-2.68,2.52-4.32-12.37-7.29-14.91-23-17.1-36a137.26,137.26,0,0,0-2.77-13.46c-.84-3.1-5.67-1.78-4.82,1.33Z"/><path class="cls-3" d="M293.5,345.82a63.33,63.33,0,0,0-5.09,6.34c-1.54,2.19-3.47,4.7-3.11,7.53.67,5.21,6.94,6.26,11.12,5.21,4.75-1.2,8.6-4.62,12-8a8.87,8.87,0,0,1,2.29-2.08c.58-.25.91,0,1.43.35,1.69,1.31,2.72,3.39,4.15,5a20.66,20.66,0,0,0,13,6.43c5,.56,9.85-1.21,14.34-3.26,4.27-1.95,8.42-4.24,13.12-5,3.8-.61,8.06-.56,11.55-2.57a8.77,8.77,0,0,0,4.28-5.68,10.7,10.7,0,0,0-1.83-8.05c-3.3-5-9-8.21-14.45-10.3a2.53,2.53,0,0,0-3.08,1.75,2.57,2.57,0,0,0,1.75,3.08c4,1.52,8.26,3.9,11,7.29,1,1.26,2.06,3,1.87,4.72a3.79,3.79,0,0,1-2.28,3c-2.74,1.45-6.64,1.4-9.79,1.87-4.34.65-8.33,2.57-12.26,4.43-3.67,1.75-7.55,3.63-11.69,3.79a15.42,15.42,0,0,1-10.6-3.73c-2.91-2.55-4.6-7.08-8.69-8.05-2.54-.6-4.73.65-6.49,2.37-1.52,1.48-3,3-4.63,4.35-2.51,2.09-7.39,5.24-10.57,3.11-.41-.28-.6-.47-.57-.82.1-1.13,1.27-2.41,1.87-3.32a53,53,0,0,1,4.94-6.23c2.17-2.37-1.36-5.92-3.54-3.54Z"/><path class="cls-3" d="M254.36,387.42a39.27,39.27,0,0,0-10.14,7.4,2.5,2.5,0,1,0,3.54,3.54c.69-.7,1.41-1.37,2.15-2,.36-.31.73-.61,1.1-.91a2.78,2.78,0,0,0,.27-.21c-.45.42-.16.13,0,0l.61-.45a38,38,0,0,1,5-3.07,2.52,2.52,0,0,0,.9-3.42,2.56,2.56,0,0,0-3.42-.89Z"/><path class="cls-3" d="M252.85,396.21c10.17,4.07,21.17,5.38,32,5.94,11.4.58,22.86.82,34.28.74,21.64-.13,43.66-2.42,63.52-11.61a86.32,86.32,0,0,0,14.57-8.52c2.24-1.64,5.17-3.41,5.91-6.26.83-3.17-2-6.41-5.24-5.58a2.53,2.53,0,0,0-1.75,3.08,12.31,12.31,0,0,0,4.66,6.24,2.5,2.5,0,0,0,2.53-4.32,6.51,6.51,0,0,1-2.36-3.25l-1.75,3.07c3.81-1-.65-.12-.8-.14.32,0-.26-.22-.13-.28-.11.05-.3.44-.39.54a16.24,16.24,0,0,1-2.52,2.07c-1.86,1.4-3.79,2.71-5.76,3.93a89,89,0,0,1-12.19,6.3,117.6,117.6,0,0,1-27,7.5,206.31,206.31,0,0,1-31.8,2.24c-10.57.05-21.17-.2-31.73-.66-11.14-.48-22.33-1.68-32.76-5.85a2.51,2.51,0,0,0-3.08,1.74,2.57,2.57,0,0,0,1.75,3.08Z"/><path class="cls-3" d="M253.05,397.59c6.69,14.3,13.49,28.71,23.17,41.27,9.31,12.08,21.38,22,36,26.86a51.39,51.39,0,0,0,21.59,2.49,52.1,52.1,0,0,0,21.62-7.74c12.8-7.91,23.61-19.66,31.61-32.32s13.21-27,14.25-42c.13-1.8.19-3.6.19-5.41,0-3.21-5-3.22-5,0a82.94,82.94,0,0,1-10.88,40,101.29,101.29,0,0,1-28,32.21A53.75,53.75,0,0,1,338,462.46a43.76,43.76,0,0,1-20.1-.31c-13.89-3.36-25.81-12-34.95-22.82-9.87-11.63-16.75-25.47-23.22-39.18q-1.2-2.53-2.39-5.08a2.53,2.53,0,0,0-3.42-.9,2.57,2.57,0,0,0-.9,3.42Z"/><path class="cls-3" d="M330.15,489.44a47.86,47.86,0,0,0,19.54-4.23,2.52,2.52,0,0,0,.89-3.42,2.56,2.56,0,0,0-3.42-.9,41.81,41.81,0,0,1-17,3.55c-3.21,0-3.22,5,0,5Z"/><path class="cls-1" d="M177.77,350.92c-.24-5.36-.68-10.8-2.62-15.8s-5.6-9.56-10.62-11.44a20.63,20.63,0,0,0-8-1.08,35.73,35.73,0,0,0-24.61,11.22c-3,3.21-5.44,7.16-5.86,11.53-.69,7,3.92,13.51,9.39,17.94s12,7.52,17.29,12.1,9.6,11.44,8.32,18.36c-.38,2.05-1.22,4-1.36,6.07s.67,4.44,2.59,5.21a6.2,6.2,0,0,0,3.57,0,31.51,31.51,0,0,0,12.6-5.78"/><path class="cls-3" d="M222,305.9a108.22,108.22,0,0,1,21.12-16.77c3.41-2.05,7.24-4,11.32-3.92,3.18,0,6.5,1.29,8.19,4.1s6,.24,4.32-2.52c-3.76-6.25-11.77-7.67-18.34-5.69a41.12,41.12,0,0,0-10.43,5.23,118.46,118.46,0,0,0-9.66,7,113.39,113.39,0,0,0-10.05,9.05c-2.27,2.3,1.27,5.83,3.53,3.54Z"/><path class="cls-3" d="M219.54,310.23c-.36-.05.08,0,.11.07-.28-.2,0,0,.09.06s.38.27.11.05a4.21,4.21,0,0,1,.37.36,7.75,7.75,0,0,1,1.06,1.51,21.62,21.62,0,0,0,2.91,4.23,10,10,0,0,0,5.69,2.54c2.41.42,4.84.81,7.28,1,4.6.38,9.44-.07,13.5-2.44s6.94-6.34,9.53-10.2a103.34,103.34,0,0,0,8.23-14.8,2.57,2.57,0,0,0-.9-3.42,2.51,2.51,0,0,0-3.42.9,103.62,103.62,0,0,1-6.83,12.66c-2.2,3.46-4.56,7.3-7.93,9.76s-7.78,2.88-12,2.56c-2.14-.17-4.26-.52-6.37-.89a9,9,0,0,1-2.47-.62,3.52,3.52,0,0,1-1.23-1.07c-1-1.3-1.65-2.83-2.64-4.15a7.18,7.18,0,0,0-5.12-3.12c-1.34-.18-2.5,1.28-2.5,2.5a2.56,2.56,0,0,0,2.5,2.5Z"/><path class="cls-3" d="M371.55,279.17a77,77,0,0,1,14.94-14.08c4.32-3.11,10.05-7.47,15.63-5.27a2.5,2.5,0,1,0,1.33-4.82c-6.69-2.64-13.61,1.58-18.9,5.35A83,83,0,0,0,368,275.63a2.57,2.57,0,0,0,0,3.54,2.51,2.51,0,0,0,3.53,0Z"/><path class="cls-3" d="M367.21,282.18c6.93,2.8,13.61,6.38,21.13,7.31a22.71,22.71,0,0,0,11-1,33.65,33.65,0,0,0,8.62-4.83,20.87,20.87,0,0,0,6.76-9.31,2.5,2.5,0,1,0-4.82-1.33,16.52,16.52,0,0,1-6.69,7.94,29.23,29.23,0,0,1-4.58,2.46,15.3,15.3,0,0,1-5.5,1.24c-8.78.41-16.65-4.14-24.54-7.33a2.53,2.53,0,0,0-3.08,1.75,2.57,2.57,0,0,0,1.75,3.08Z"/><path class="cls-3" d="M235.31,291.29c-1.52,5.61-3.16,12-.9,17.65,1.83,4.57,6,8.57,11.2,8.62s8.85-3.92,10.84-8.24c2.29-5,3.77-10.92,2.64-16.38s-6.22-10.69-12.16-10a2.57,2.57,0,0,0-2.5,2.5,2.52,2.52,0,0,0,2.5,2.5c3.44-.4,6.24,2.28,7.13,5.47,1.15,4.08-.09,8.67-1.56,12.51-1.05,2.74-3,6.15-6.17,6.61s-6-2.34-7.13-5c-2-4.67-.32-10.27.93-14.9.84-3.11-4-4.43-4.82-1.33Z"/><path class="cls-3" d="M242.73,289.9a17.3,17.3,0,0,0-2.22,14.2,2.53,2.53,0,0,0,2.41,1.84,2.66,2.66,0,0,0,2.41-1.84,20.83,20.83,0,0,0,.27-15,2.56,2.56,0,0,0-2.07-1.8,2.46,2.46,0,0,0-2.49,1.2,25.57,25.57,0,0,0-1.1,17.47,2.5,2.5,0,1,0,4.82-1.33c-.18-.61-.35-1.23-.48-1.85-.07-.31-.13-.63-.18-.94,0-.14,0-.27-.07-.41,0,.21,0,.16,0-.15a24,24,0,0,1-.12-3.69c0-.6.08-1.19.16-1.78-.05.32.1-.59.12-.69.05-.27.11-.53.17-.8.14-.63.3-1.24.5-1.85.08-.26.17-.52.26-.78l.19-.51c.12-.29.14-.34.06-.17l-4.57-.6a15.24,15.24,0,0,1,1.07,6.19c0,.54,0,1.08-.1,1.61-.08.85.09-.44-.05.4l-.15.79a19.3,19.3,0,0,1-1,3.34h4.82a15.09,15.09,0,0,1-.34-1.48c-.16-.78,0,.46-.06-.33,0-.25,0-.5-.05-.75,0-.5,0-1,0-1.51l.06-.75c.07-.8-.1.45,0-.34a16.29,16.29,0,0,1,.8-2.91c.18-.47-.1.16.14-.33.1-.18.19-.37.29-.56a15.25,15.25,0,0,1,.84-1.4,2.51,2.51,0,0,0-.9-3.42,2.56,2.56,0,0,0-3.42.9Z"/><path class="cls-3" d="M242,295.38a25.18,25.18,0,0,1,1.64,11.49,2.5,2.5,0,0,0,2.17,2.46,2.52,2.52,0,0,0,2.74-1.79l2-5.73c.65-1.84,1.48-3.69,1.95-5.58a5.15,5.15,0,0,0-1.23-5.08c-.47-.48-1.05-.83-1.55-1.29-.1-.1-.36-.33-.28-.33a.17.17,0,0,1,0,.18,1.49,1.49,0,0,1-1,1.14l-2.82-1.15a24.46,24.46,0,0,1,3.22,15.69c-.09.63-.22,1.26-.36,1.88,0,.13-.32.84-.24,1,2.53,3.79,1-.51,1-.63s-1.12-1-1.28-1.12c-.48-.48-1-1-1.39-1.5a23.55,23.55,0,0,1-4.12-7c-1-2.56-4.81-2.28-4.91.67l-.21,6.13a49.52,49.52,0,0,0-.12,5.71,5.69,5.69,0,0,0,2.44,4.63,4.42,4.42,0,0,0,5.29-.39,2.53,2.53,0,0,0,0-3.54,2.57,2.57,0,0,0-3.54,0c-.65.51,1.24-.92,1-.16,0,.05-.21-.88-.22-.92a31.09,31.09,0,0,1,.1-3.61l.26-7.85-4.91.66a30.28,30.28,0,0,0,5.94,9.78c1.28,1.39,2.78,3,4.69,3.4,2.36.54,4.23-.95,4.89-3.15,2.17-7.29.65-15.74-3.17-22.19a2.53,2.53,0,0,0-2.83-1.15,3.87,3.87,0,0,0-2.47,4.87,5.36,5.36,0,0,0,1.29,2.27c.41.42,1.62,1,1.8,1.52a5.13,5.13,0,0,1-.47,1.44l-1.14,3.2-2.44,6.88,4.91.66a28.6,28.6,0,0,0-1.82-12.82,2.58,2.58,0,0,0-3.08-1.74,2.51,2.51,0,0,0-1.74,3.07Z"/><path class="cls-3" d="M244.17,305.34l.75,5.92,4.27-1.76a7.34,7.34,0,0,1-2.64-6.56c.15-3,1.88-6.15,3.47-8.84.36-.6.8-1.22,1.12-1.77a.64.64,0,0,1,.21-.19,11.33,11.33,0,0,1-1.2.06c-.05.06.23.38.32.52a9.11,9.11,0,0,1,1.45,3.87,8.8,8.8,0,0,1-2.14,7,9.36,9.36,0,0,1-3.47,2.34,8.9,8.9,0,0,1-4.1.57,2.58,2.58,0,0,0-3.07,1.75c-.32,1.16.4,2.89,1.74,3.07a14.34,14.34,0,0,0,11.78-3.56,13.5,13.5,0,0,0,4.23-11.33c-.4-3.63-3.34-11.53-8.32-8.4-1.88,1.18-3,3.67-4,5.55a25.08,25.08,0,0,0-2.66,6.66c-1,4.49-.08,9.85,3.73,12.82a2.55,2.55,0,0,0,2.73.52,2.47,2.47,0,0,0,1.54-2.29l-.75-5.92a2.58,2.58,0,0,0-2.5-2.5,2.51,2.51,0,0,0-2.5,2.5Z"/><path class="cls-3" d="M392.06,259.31c-5.06,3.11-6.76,8.86-7.28,14.46a24,24,0,0,0,.15,8c.73,2.87,3.09,5.74,6.37,4.71,3.06-1,1.75-5.79-1.33-4.82-.56.17-.05,0,.07.05a2.58,2.58,0,0,0,.44.22c-.14,0-.31-.33-.5-.74a5.74,5.74,0,0,1-.4-2.07,43.22,43.22,0,0,1,.3-6.33c.44-3.54,1.63-7.3,4.71-9.19,2.73-1.68.22-6-2.53-4.32Z"/><path class="cls-3" d="M399.47,273.38c.06.35.11.7.16,1.05l-.09-.66c.19,1.44.32,2.89.42,4.34a2.67,2.67,0,0,0,.74,1.77,2.5,2.5,0,0,0,3.53,0,2.46,2.46,0,0,0,.73-1.77c-.14-2-.35-4.05-.66-6.06a2.49,2.49,0,0,0-1.15-1.49,2.56,2.56,0,0,0-1.93-.26,2.53,2.53,0,0,0-1.49,1.15l-.26.6a2.72,2.72,0,0,0,0,1.33Z"/><path class="cls-3" d="M402.12,273a8.38,8.38,0,0,1-4,6.14,5.81,5.81,0,0,1-3.18,1,6.55,6.55,0,0,1-2.68-.94c-.24-.16-.24-.16,0,0L392,279a4.12,4.12,0,0,1-.28-.31c.18.24.18.24,0,0l-.37-.65c-.07-.16-.06-.13,0,.1-.06-.14-.1-.28-.15-.43a8.89,8.89,0,0,1-.22-.89c0-.29-.06-.31,0,0,0-.16,0-.32-.05-.48a12.64,12.64,0,0,1,0-2,14.76,14.76,0,0,1,2.71-6.77l-4.18-1.11q1.61,5.24,2.86,10.54a2.48,2.48,0,0,0,2.74,1.79,2.53,2.53,0,0,0,2.17-2.45,82.81,82.81,0,0,0,.11-12.2l-4.66,1.26a17.71,17.71,0,0,1,3.21,7.46,20.87,20.87,0,0,1,.35,3.57,4,4,0,0,0,.57,2.21,10.61,10.61,0,0,0,.65.85c.3.39-.37-.56,0,0,.05.08.25.49.33.52s-.24-.66-.13-.27,0-.69,0-.32a1.56,1.56,0,0,1,.77-1.45c-.25.17-.33,0,.14,0a3.82,3.82,0,0,0-.48.15l-.6.12c-.49.1.2,0-.33,0-.8,0-1.59.09-2.39.1l1.77.73c-2.26-2.33-2.47-4.93-1.84-7.86.74-3.41,2.07-6.66,2.64-10.11l-3.68,1.5c.25.15.24.13,0-.07a2.83,2.83,0,0,1,.24.25c-.22-.3-.26-.33-.12-.11-.15-.37-.18-.44-.09-.19.11.41,0-.64,0,0,.07-.46.08-.56,0-.31s0,.15.14-.3c-.12.22,0,.12.25-.29a2.17,2.17,0,0,1,2.07-.51c1.14,1.11,1.54,1.4,1.2.86.16.41.2.48.11.21s-.05-.23,0,.09c0-.17,0-.33,0-.5a10.94,10.94,0,0,1,0-1.28l-3.77,2.16a10.73,10.73,0,0,1,4.65,6.07,2.5,2.5,0,1,0,4.82-1.33c-1.29-3.71-3.46-7.08-6.94-9.06a2.53,2.53,0,0,0-3.76,2.16,7,7,0,0,0,.71,4.17,2.86,2.86,0,0,0,4.46.5c2.08-2.09.84-5.5-1.41-6.83-1.27-.75-3.41-.13-3.67,1.49-.66,4-2.37,7.77-2.93,11.79a13.22,13.22,0,0,0,.41,6.34c.73,2,2.38,5.28,4.77,5.44,2.69.17,7.83-.23,7.89-3.94a4.32,4.32,0,0,0-.93-2.57c-.19-.26-.39-.51-.59-.77-.34-.44.33.5.09.11a1.38,1.38,0,0,0-.19-.28c-.14-.1.15.36.17.43,0-.14.05,1.07.06.22a22.61,22.61,0,0,0-4.25-13.71,2.6,2.6,0,0,0-2.82-1.15A2.51,2.51,0,0,0,392.4,264a82.81,82.81,0,0,1-.11,12.2l4.91-.67q-1.26-5.31-2.86-10.54c-.49-1.63-2.94-2.65-4.17-1.1-3.48,4.36-5.65,10.95-3.26,16.32a8.72,8.72,0,0,0,6.15,4.69,10.63,10.63,0,0,0,8.42-1.95,13.17,13.17,0,0,0,5.47-8.6,2.59,2.59,0,0,0-1.75-3.07c-1.17-.32-2.89.4-3.08,1.74Z"/><path class="cls-3" d="M396.15,261.29l.37.47-.39-.5a34.14,34.14,0,0,1,2.39,3.53,2.5,2.5,0,1,0,4.31-2.52,37.14,37.14,0,0,0-3.15-4.51,1.77,1.77,0,0,0-.8-.52,1.88,1.88,0,0,0-1-.22,2.54,2.54,0,0,0-1.77.74,2.48,2.48,0,0,0-.73,1.76l.09.67a2.41,2.41,0,0,0,.64,1.1Z"/><path class="cls-3" d="M401.42,260.36a38.24,38.24,0,0,1,14.27,5.45L414.55,263a18.7,18.7,0,0,1-4.61,9,2.5,2.5,0,0,0,3.53,3.53,23.71,23.71,0,0,0,5.9-11.16,2.6,2.6,0,0,0-1.15-2.83,43.2,43.2,0,0,0-15.47-6,2.5,2.5,0,0,0-1.33,4.82Z"/><path class="cls-3" d="M407.93,282.5A72.2,72.2,0,0,0,405,258c-.93-3.08-5.75-1.77-4.83,1.33a67.69,67.69,0,0,1,2.76,23.16c-.17,3.22,4.83,3.21,5,0Z"/><path class="cls-1" d="M169.82,364.21c-2.23-1.38-3.7-3.66-5.47-5.54a20.2,20.2,0,0,0-6.71-4.62c-5.19-2.23-10.88-2.66-16.46-2.95-2.41-.13-3.49,3.58-1.26,4.66a31.39,31.39,0,0,1,13.73,12.77l2.82-3.67a34,34,0,0,1-12.86-9.39L140.07,359l12.66,13,3-3.93c-5.79-3.26-10.39-8.08-14.89-12.9-1.83-1.95-4.32-4.27-4.64-7.09a3.64,3.64,0,0,1,.76-2.65,1.81,1.81,0,0,1,2.07-.86l-1.74-1.75,2.86,7.45c.84,2.2,4.11,2.55,4.82,0a1.39,1.39,0,0,1,1.36-1.1l-2.16-3.76a.28.28,0,0,1-.35.13l1.15,1.49a9.67,9.67,0,0,1,5-12.55c2.57-1.12.73-5.56-1.93-4.57l-11,4.14,2.43,4.18c3.71-4.33,7.72-9.15,13.58-10.39a9.18,9.18,0,0,1,7.26,1.39c2.38,1.63,4.23,3.89,6.82,5.24,2.1,1.09,4.85-1.21,3.43-3.42a13.93,13.93,0,0,0-24.4,1.19,2.52,2.52,0,0,0,3.42,3.42,7.37,7.37,0,0,1,5.26-.44l-1.1-4.18-6.23,7.17,3.93,3a7.85,7.85,0,0,1,8-2.77,2.54,2.54,0,0,0,3.17-2.42c.07-3.66-3-6.07-6.38-6.7-3.69-.7-7.3.3-10.66,1.81a26.1,26.1,0,0,0-14.14,16.46,2.5,2.5,0,0,0,1.44,3,2.56,2.56,0,0,0,3.12-1c1.22-1.59,3-3.8,5.16-4a3.12,3.12,0,0,1,1.75.61,1.93,1.93,0,0,1,.58.67,1.17,1.17,0,0,1,0,.38,2.52,2.52,0,0,0,1.45,2.95,2.46,2.46,0,0,0,3.12-1,6.16,6.16,0,0,0-2.29-7.92l.51,3.92A20.14,20.14,0,0,1,158,339.37a8.29,8.29,0,0,0,3.76-1,4.7,4.7,0,0,0,2-2.81c.54-2.22-.43-4.56-1.62-6.4a2.54,2.54,0,0,0-3.93-.5c-5,4.54-7.06,11.72-6.4,18.35.76,7.69,4.58,14.53,8.88,20.79a2.58,2.58,0,0,0,3.42.9,2.54,2.54,0,0,0,.9-3.43c-3.69-5.37-7.33-11.29-8.16-17.89-.7-5.5.68-11.39,4.9-15.19l-3.93-.51a6.56,6.56,0,0,1,1.05,2.18,1.12,1.12,0,0,1,0,.6c0-.13,0-.28.21-.31a42,42,0,0,0-5.78,1.09,25.36,25.36,0,0,0-10.6,6.37,2.52,2.52,0,0,0,.51,3.92,1.2,1.2,0,0,1,.49,1.09l4.57,1.92c.92-4.18-2.56-7.59-6.58-7.94-4.38-.38-7.68,3.26-10.08,6.41l4.57,1.93a21.12,21.12,0,0,1,10.23-12.67,16.08,16.08,0,0,1,7.25-2.2,6.85,6.85,0,0,1,2.81.58c.17.09.66.41.66.41-.22-.19.49.55.28.29a1.19,1.19,0,0,1,.08.16c.17.44.05.15.05.53l3.16-2.41a13.06,13.06,0,0,0-13.61,5.07c-1.68,2.27,2.07,5.17,3.93,3l6.22-7.16a2.53,2.53,0,0,0-1.1-4.18,12.79,12.79,0,0,0-9.11.94l3.42,3.42a9.29,9.29,0,0,1,7.34-5.33,9.19,9.19,0,0,1,8.42,4.14l3.42-3.42c-2.8-1.46-4.78-4-7.48-5.66A14.32,14.32,0,0,0,152.1,323c-6.9,1.25-11.84,6.68-16.18,11.75a2.59,2.59,0,0,0-.39,3,2.49,2.49,0,0,0,2.82,1.15l11-4.13-1.93-4.57c-4.67,2.05-7.6,6.83-8.17,11.79-.25,2.24-.06,5.38,1.34,7.25,1,1.28,3,1.54,4.42,1.24a5.3,5.3,0,0,0,3.47-2.51,2.53,2.53,0,0,0-2.16-3.77,6.5,6.5,0,0,0-6.18,4.78H145l-2.33-6.06c-.45-1.19-.74-2.43-2-3a5.44,5.44,0,0,0-2.85-.36c-3.32.4-6,3.45-6.49,6.68-.63,3.91,1.48,7.38,3.92,10.25s5,5.45,7.63,8a51.48,51.48,0,0,0,10.34,7.95,2.51,2.51,0,0,0,3-3.93l-12.66-13c-2.27-2.33-5.62,1.13-3.54,3.54a39.38,39.38,0,0,0,15.07,10.67c2.13.87,3.81-1.94,2.83-3.67a36.06,36.06,0,0,0-15.53-14.57l-1.26,4.66c4.89.26,10.1.51,14.63,2.57a16.62,16.62,0,0,1,5.65,4.25c1.82,2.05,3.47,4.15,5.84,5.6,2.74,1.7,5.26-2.63,2.52-4.31Z"/><path class="cls-1" d="M154.43,346.91a6.23,6.23,0,0,0-4.11,0,6.46,6.46,0,0,0-2,1.16,6,6,0,0,0-.75.65h0c.76.08.94,0,.54-.16a8.78,8.78,0,0,0-2-1.35l-2-1.41-4.21-3c-2.08-1.47-4.68,1.38-3.42,3.42a63.86,63.86,0,0,0,7.77,10.16l2.43-4.18a45.36,45.36,0,0,1-11.18-4,2.53,2.53,0,0,0-3.67,2.82,24.13,24.13,0,0,0,11.36,14.24l2.52-4.32c-5.74-3-10.75-8.75-10.55-15.57a8.62,8.62,0,0,1,3.88-7.14,8.75,8.75,0,0,1,7.85-.94,9,9,0,0,1,5.46,7.23l4.66-1.26c-4.25-6-10.61-12.65-18.61-9.15-3.49,1.53-6,4.59-8.22,7.55s-4.63,7.43-2.12,11c1.42,2,3.89,3.32,5.9,4.71l6.67,4.61c2,1.39,4.86-1.4,3.42-3.42a28.42,28.42,0,0,1-4.58-22.81c.73-3.13-4.09-4.47-4.82-1.33a33.3,33.3,0,0,0,5.09,26.66l3.42-3.42-6.07-4.19-3.24-2.23c-.61-.43-1.48-.87-1.78-1.6-.56-1.33.82-3.22,1.51-4.24a31.56,31.56,0,0,1,3.31-4.08c2.23-2.33,5.12-4.1,8.38-2.75s5.49,4.47,7.42,7.17a2.58,2.58,0,0,0,2.82,1.15,2.51,2.51,0,0,0,1.84-2.41c-.79-8.86-9.8-15.2-18.34-11.84a13.63,13.63,0,0,0-8.34,9.12,18.37,18.37,0,0,0,1.75,12.87,25.08,25.08,0,0,0,10.77,10.59c2.84,1.49,5.35-2.75,2.52-4.32a19,19,0,0,1-9.06-11.25L133,352.5A50.13,50.13,0,0,0,145.34,357a2.52,2.52,0,0,0,2.43-4.18,56.81,56.81,0,0,1-7-9.14l-3.43,3.42,4.42,3.11a30.06,30.06,0,0,0,4.13,2.81,4.37,4.37,0,0,0,4.9-.6c.85-.68,1.19-1.1,2.29-.7a2.5,2.5,0,1,0,1.33-4.82Z"/><path class="cls-4" d="M153.8,336.07c-5.52,0-11.87.39-15.69,5A9.32,9.32,0,0,0,139.26,355c1,.88,2.14,1.66,3.24,2.45a17.39,17.39,0,0,1,2.64,2.21c2.24,2.32,5.77-1.22,3.53-3.53a23.42,23.42,0,0,0-3.11-2.6c-.92-.68-2.06-1.47-2.67-2a12.3,12.3,0,0,1-1.28-1.22s-.48-.6-.23-.27a9,9,0,0,1-.52-.84c-.24-.4,0,.17-.15-.32-.05-.17-.2-.76-.2-.73s0-.59,0-.77,0-.36,0-.15c0-.13,0-.27.09-.4a6.93,6.93,0,0,1,4.3-4.65c2.81-1.14,5.94-1.1,8.92-1.12,3.22,0,3.23-5,0-5Z"/><path class="cls-5" d="M189.44,305.74c3.63-4.91,7.32-9.82,11.82-14a36.3,36.3,0,0,1,7.21-5.24,58.28,58.28,0,0,1,9.53-3.85c13.05-4.38,26.4-8.84,40.2-9.95a63.67,63.67,0,0,1,22.95,2c3.1.89,4.42-3.93,1.33-4.82-14.21-4.11-29.16-2.47-43.3,1.07-7.09,1.78-14,4-21,6.34a94.78,94.78,0,0,0-10.42,3.93,39.74,39.74,0,0,0-8.22,5.35c-5.68,4.7-10.09,10.71-14.44,16.59a2.51,2.51,0,0,0,.89,3.42,2.55,2.55,0,0,0,3.42-.89Z"/><path class="cls-5" d="M187.5,307.52l9,18.48,4.45,9.13a79.42,79.42,0,0,0,4.21,8,21.77,21.77,0,0,0,13.53,9.56,50.7,50.7,0,0,0,15.83.93c10-.79,20.15-3.7,28.31-9.65A38.67,38.67,0,0,0,273,333.28c3.22-5.14,4.91-11,6.44-16.85Q285.3,294.28,290.4,272c.72-3.13-4.1-4.47-4.82-1.33q-4.35,19-9.22,37.84c-1.51,5.87-2.8,12-5.19,17.56a32.58,32.58,0,0,1-8.11,11.41c-6.81,6.2-15.88,9.49-24.87,10.81a57.6,57.6,0,0,1-14.49.3c-4.89-.53-9.7-2.22-12.91-6.11a36.92,36.92,0,0,1-4.41-7.6q-2.4-4.89-4.78-9.8l-9.79-20a2.5,2.5,0,1,0-4.31,2.52Z"/><path class="cls-5" d="M188.42,306.43a124.57,124.57,0,0,1-26.91,9.73c-8.95,2.17-18.1,4.06-26.23,8.56a36.26,36.26,0,0,0-11,9.08,2.58,2.58,0,0,0,0,3.54,2.52,2.52,0,0,0,3.53,0c5.18-6.57,12.81-10.28,20.65-12.68,9.08-2.79,18.47-4.33,27.45-7.49a125.94,125.94,0,0,0,15-6.42c2.87-1.45.34-5.77-2.52-4.32Z"/><path class="cls-5" d="M280.48,274.91l.49-.23-.59.25a9.74,9.74,0,0,1,2.38-.64l-.67.09a9.72,9.72,0,0,1,2.47,0l-.66-.08a8.22,8.22,0,0,1,.84.15,2.65,2.65,0,0,0,1.93-.25,2.51,2.51,0,0,0,.9-3.42,2.5,2.5,0,0,0-1.5-1.15,11.45,11.45,0,0,0-3.87-.26,12.84,12.84,0,0,0-4.24,1.23,2.53,2.53,0,0,0-1.15,1.49,2.5,2.5,0,0,0,1.75,3.08,2.85,2.85,0,0,0,1.92-.25Z"/><path class="cls-5" d="M335.74,267c-1.82,11.8-3.31,25.16,5.09,34.92,3.75,4.35,8.9,7.16,14.12,9.35a172.37,172.37,0,0,0,17.3,6c12.2,3.64,25.39,5.43,37.36.05A29,29,0,0,0,422.47,306a43.16,43.16,0,0,0,5.45-16.34,140.72,140.72,0,0,0,1.19-22.19,192.66,192.66,0,0,0-1.91-24.24c-.18-1.34-1.89-2.07-3.07-1.75a2.57,2.57,0,0,0-1.75,3.08,177.39,177.39,0,0,1,1.23,39.08c-.84,10.21-3.5,21.33-12.68,27.23-9.57,6.14-21.49,5.57-32.1,3a183.23,183.23,0,0,1-17.7-5.55c-4.69-1.67-9.47-3.63-13.42-6.73A21.91,21.91,0,0,1,339.58,287c-.86-6.18,0-12.53,1-18.65a2.59,2.59,0,0,0-1.75-3.08,2.52,2.52,0,0,0-3.07,1.75Z"/><path class="cls-5" d="M338.33,273c9.92-6.38,19.88-12.79,30.64-17.67a100.7,100.7,0,0,1,33.42-8.67,103.58,103.58,0,0,1,19.92.34,2.51,2.51,0,0,0,2.5-2.5,2.55,2.55,0,0,0-2.5-2.5,105.71,105.71,0,0,0-36,2.16C374.53,246.94,363.48,252,353,258c-5.85,3.38-11.53,7-17.2,10.68-2.7,1.74-.2,6.07,2.52,4.32Z"/><path class="cls-5" d="M288,280.67a51.13,51.13,0,0,1,42.55-9.61c3.13.71,4.47-4.11,1.33-4.83a56.54,56.54,0,0,0-47.42,10.9,2.54,2.54,0,0,0,0,3.54,2.57,2.57,0,0,0,3.54,0Z"/><path class="cls-6" d="M262.63,406.57a168.77,168.77,0,0,0,51.68,8.08A172.85,172.85,0,0,0,366,406.78a168.47,168.47,0,0,0,27.37-11.34c2.85-1.49.33-5.8-2.53-4.32a164.19,164.19,0,0,1-48.14,16.14,167.22,167.22,0,0,1-50.53.93A162.79,162.79,0,0,1,264,401.75c-3.07-1-4.38,3.84-1.33,4.82Z"/><path class="cls-6" d="M346.15,404.09l-30.38,1.75c-1.1.06-2.54,1.71-.72,1.81a180.51,180.51,0,0,0,29.5-.76c.54-.06,1.55-.39,1.62-1.06s-.79-.78-1.28-.75l-38,2.71c-1.09.07-2.55,1.68-.71,1.81a110.39,110.39,0,0,0,20.88-.54c.53-.07,1.4-.34,1.58-.94s-.35-.87-.87-.88c-16.93-.15-34.07-.29-50.66-4a106.1,106.1,0,0,1-13.64-4c-1-.38-3.38,1.11-1.73,1.72,16.09,6,33.34,7.48,50.37,7.94,4.86.13,9.72.17,14.58.22l.71-1.82a106.74,106.74,0,0,1-20.14.53l-.71,1.81,38-2.7.34-1.81a174.83,174.83,0,0,1-28.76.75l-.71,1.81,30.39-1.74c1.51-.09,2.33-1.92.34-1.81Z"/><path class="cls-6" d="M310.08,408q-14.15.6-28.29.2a4,4,0,0,0-1.91.48c-.18.1-.85.57-.24.63A96,96,0,0,0,305.69,408c.24-.05,2.38-.9,1.47-1a128.8,128.8,0,0,0-25-1.39l-1.59,1.11A237,237,0,0,1,318.91,405l1.59-1.11a165.88,165.88,0,0,1-44.67-1.36l-2.39,1.08A514.46,514.46,0,0,0,327,406.83q7.67.06,15.32-.11l1.59-1.11a133,133,0,0,0-16.72,2.62c-.3.06-1.71.33-1.71.76s.85.28,1.15.23l14.83-2.54c.37-.07,1.35-.25,1.59-.63s.05-.44-.36-.43l-21.2.3-1.9,1.12A224.35,224.35,0,0,0,376.34,397q7.92-2.49,15.64-5.57c.27-.11,1.13-.37.87-.77s-1.63.1-1.86.19a214.84,214.84,0,0,1-53.78,13.78q-7.86,1-15.77,1.33a3.76,3.76,0,0,0-2.05.55c-.38.29-.48.58.15.57l21.2-.3,1.23-1.06-14.83,2.55-.56,1a125.42,125.42,0,0,1,16-2.51,3.32,3.32,0,0,0,1.84-.61c.28-.3.3-.51-.26-.5A513.93,513.93,0,0,1,291.08,404q-7.63-.63-15.25-1.49a3.83,3.83,0,0,0-2,.38c-.21.1-1,.59-.37.7A170.42,170.42,0,0,0,319.22,405a3.29,3.29,0,0,0,1.84-.61c.3-.32.29-.48-.25-.5a240,240,0,0,0-38.93,1.69,3.36,3.36,0,0,0-1.84.6c-.28.3-.32.53.25.51A125.33,125.33,0,0,1,304.77,408l1.48-1A88.94,88.94,0,0,1,282,408.17l-2.15,1.11q14.14.39,28.3-.21a3.64,3.64,0,0,0,2-.55c.37-.28.49-.6-.15-.57Z"/><path class="cls-6" d="M351.29,402.67c-1.51.25-3.31,1.48-2.6,3.26.28.69,1.08.73,1.72.6q6.6-1.39,13-3.43c1.41-.45,1.62-2.1-.13-2.05a52.59,52.59,0,0,0-20.8,5c-1.59.75-.52,2.15.91,1.85l5.91-1.27L348.11,405A19.24,19.24,0,0,1,332,406.61c-1.24-.42-3.41,1.36-1.68,1.95A23.42,23.42,0,0,0,350,406.28a1,1,0,0,0,.37-1.3,1.56,1.56,0,0,0-1.59-.35l-5.91,1.26.9,1.85a48.29,48.29,0,0,1,19.26-4.57l-.14-2.05q-6.44,2-13,3.43l1.71.6c-.21-.52.15-.48-.56-.37.62-.1,1.54-.41,1.6-1.17s-.75-1-1.34-.94Z"/><path class="cls-6" d="M391.34,387.25A58,58,0,0,1,359.71,401c-.52.06-1.64.2-1.94.7s.25.53.69.49A65,65,0,0,0,394,387c.5-.43-.45-.5-.69-.49a3.47,3.47,0,0,0-1.94.7Z"/><path class="cls-6" d="M390,392.81c2.82-.68,5.11-3.21,4.64-6.22-.14-.9-1.95-.32-2.36-.07a106.71,106.71,0,0,1-18.7,8.88c-.44.16-1.15.7-.76,1.21s1.45.23,1.92.06a110.85,110.85,0,0,0,19.36-9.23l-2.36-.07c.24,1.51-.52,3.52-2.15,3.91-.44.11-1.4.54-1.24,1.15s1.23.48,1.65.38Z"/><path class="cls-6" d="M319.66,404a154.61,154.61,0,0,0,50.86-4A85.2,85.2,0,0,0,385,395.26c4.48-2,8.64-4.9,11-9.31.28-.53-1-.44-1.2-.42a2.4,2.4,0,0,0-1.68.87l-3.05,5.09c-.31.51,1,.44,1.2.42A2.4,2.4,0,0,0,393,391l3-5.09-2.88.45c-4.33,8-14.61,10.3-22.69,12.34a148,148,0,0,1-30.91,4.35,150.85,150.85,0,0,1-18-.47,2.88,2.88,0,0,0-2.05.55c-.38.35-.43.73.21.79Z"/><path class="cls-6" d="M324.27,407.61a2.45,2.45,0,0,1-1.81-.27,4.39,4.39,0,0,1-1.84-1.95l-2.94,3.31a67.86,67.86,0,0,1,8.42-.74l.55-4.1a182.5,182.5,0,0,1-22.52,2c-1.23,0-3,.93-3.2,2.3s1.56,1.83,2.65,1.81a184.65,184.65,0,0,0,22.52-2c1.24-.19,3-.82,3.21-2.29s-1.57-1.84-2.66-1.81a67.86,67.86,0,0,0-8.42.74c-1.55.23-4,1.38-2.93,3.31,1.58,2.92,5.23,4.28,8.42,3.8,1.24-.19,3-.82,3.21-2.29s-1.56-2-2.66-1.81Z"/><path class="cls-6" d="M375.38,396a145.82,145.82,0,0,1-34.44,5.79c-1.27.05-3.09.38-3.83,1.56s.59,1.66,1.54,1.62a158.22,158.22,0,0,0,37.48-6.19c.83-.25,2.8-1,2.52-2.17s-2.55-.82-3.27-.61Z"/><path class="cls-6" d="M285.19,409.3l13.87,0,.46-4.45a72.05,72.05,0,0,1-17.1-.78l-1.21,4.42,18,0c1.31,0,3-1,3.18-2.42s-1.51-2-2.72-2l-18,0a3.33,3.33,0,0,0-3.1,2.13c-.3,1.27.7,2.1,1.89,2.3a79.89,79.89,0,0,0,18.6.83c1.31-.09,3-.94,3.18-2.42s-1.51-2-2.72-2l-13.87,0c-1.3,0-3,1-3.18,2.41s1.52,2,2.72,2Z"/><path class="cls-6" d="M302.94,457.21q7.19,2.44,14.57,4.3c5.07,1.26,10.35,2.66,15.62,2.49s10-2.26,14.66-4.72a116.45,116.45,0,0,0,12.08-7.39,120.65,120.65,0,0,0,12.75-10.25,1.22,1.22,0,0,0-.59-2.22,4.82,4.82,0,0,0-4.1,1.1,114.14,114.14,0,0,1-21.07,15.34c-3.53,2-7.33,4.25-11.44,4.61-4.48.4-9.17-1-13.49-2.05q-7.85-1.92-15.49-4.53a4.61,4.61,0,0,0-4.1,1.1c-1,.94-.56,1.83.6,2.22Z"/><path class="cls-6" d="M297,452.83a143.17,143.17,0,0,0,47,6.56c1.29,0,3-1,3.17-2.4s-1.51-2-2.7-2a134.6,134.6,0,0,1-44.16-6.18,3.91,3.91,0,0,0-4.1,1.1,1.77,1.77,0,0,0,.78,2.91Z"/><path class="cls-6" d="M323.73,460c.93-.1,1.87-.16,2.81-.17.19,0,.76-.13.13,0a3.54,3.54,0,0,1,.65,0c.47,0,.94,0,1.41.07.9.06,1.8.16,2.69.3.43.07.86.12,1.28.22l.19,0,.84.19a4.19,4.19,0,0,0,4.1-1.09,1.72,1.72,0,0,0,.5-1.55,1.75,1.75,0,0,0-1.21-1.09,37.83,37.83,0,0,0-12.81-.94,4.64,4.64,0,0,0-2.19.79,2.39,2.39,0,0,0-1,1.47c-.09,1.4,1.5,1.86,2.64,1.75Z"/><path class="cls-6" d="M306.63,407.62c-3.32-3.33-8.17-3.29-12.54-2.82-2,.22-4.36.59-6.2.67a9.83,9.83,0,0,1-5.35-1,4.41,4.41,0,0,0-4.12.5c-.85.55-1.68,1.75-.46,2.43,4,2.22,8.83,1.7,13.22,1.15,3.59-.45,7.28-1.37,10.09,1.44,1.52,1.53,7-.67,5.36-2.33Z"/><path class="cls-6" d="M278.82,408.41a76.46,76.46,0,0,1,25.72,1.44,5.52,5.52,0,0,0,4.1-1.1c1-.77.65-1.46-.46-1.71a84.49,84.49,0,0,0-28.45-1.38c-.93.11-3.11.67-3.34,1.8s1.8,1,2.43,1Z"/><path class="cls-7" d="M305.49,433.75c13.74,2.12,27.71,4,41.48,1.05,1-.21,2.29-1,2.42-2.15s-1-1.78-1.91-1.79l-38.56-.8.24,3.68A105.89,105.89,0,0,1,348.3,426c1.23,0,3-.94,3.21-2.29s-1.57-1.82-2.66-1.81a114.81,114.81,0,0,0-42.22,8.6c-.8.33-1.74,1.21-1.65,2.14a1.89,1.89,0,0,0,1.9,1.53l38.56.8L346,431c-12.68,2.74-25.8.62-38.42-1.32a3.82,3.82,0,0,0-3.78,1.75c-.65,1.32.57,2.15,1.74,2.33Z"/><path class="cls-7" d="M353.19,413.7a67.45,67.45,0,0,1-32.3,5v24A81.21,81.21,0,0,0,349.7,438c6.09-2.21,10.2-8.16,8.39-14.76-1.62-5.88-8.64-10.61-14.77-8.38a61.37,61.37,0,0,1-22.43,3.88,12.17,12.17,0,0,0-12,12c0,6.95,5.52,11.45,12,12a83.32,83.32,0,0,0,38.68-5.9c6-2.47,10.25-8,8.38-14.76-1.56-5.66-8.74-10.87-14.76-8.38Z"/><path class="cls-7" d="M288,429.93a31,31,0,0,0,20.74,7.42,1.51,1.51,0,0,0,.4-3,52.86,52.86,0,0,1-17.37-10.27l-1.06,2.56,27.7,2.69v-3l-19.68.41a1.51,1.51,0,0,0-.4,2.95A24.5,24.5,0,0,0,310.2,431a1.51,1.51,0,0,0,.4-2.94,86.64,86.64,0,0,1-12.6-6.3l-.75,2.8a117.56,117.56,0,0,0,20,.52v-3a80.81,80.81,0,0,1-28.38-2.37l-.4,2.95,30.93,2.09v-3A63.42,63.42,0,0,1,290,415.93l-.76,2.79,19.82.77v-3l-6,.66c-1.9.21-1.92,3.21,0,3l6-.66a1.5,1.5,0,0,0,0-3l-19.82-.77c-1.43-.05-2.12,2.16-.75,2.8a66.61,66.61,0,0,0,31,6.26,1.5,1.5,0,0,0,0-3l-30.93-2.09c-1.71-.12-2,2.52-.4,2.95a83.69,83.69,0,0,0,29.18,2.47c1.9-.17,2-3.12,0-3a117.56,117.56,0,0,1-20-.52c-1.56-.18-1.94,2.08-.76,2.79A90.54,90.54,0,0,0,309.8,431l.4-3a22.72,22.72,0,0,1-11.08-1.19l-.4,3,19.68-.41a1.5,1.5,0,0,0,0-3l-27.7-2.69a1.51,1.51,0,0,0-1.06,2.56,56.52,56.52,0,0,0,18.7,11l.39-2.94a27.84,27.84,0,0,1-18.62-6.54c-1.48-1.23-3.61.88-2.12,2.12Z"/><path class="cls-7" d="M264.4,409.93c9.9,5,22.84,5.77,33.75,6.72a367.73,367.73,0,0,0,38.86.92l-.4-2.95c-12.73,2.25-25.62,2.66-38.51,3a1.5,1.5,0,0,0,0,3l16.85.47v-3l-8.58.32c-1.61.06-2.14,2.62-.4,2.94l5.17,1-.35-2.75-3.52,2a1.52,1.52,0,0,0-.69,1.69l1.3,6.3,1.44-1.9-13,.27c-1.42,0-2.13,2.09-.76,2.79l6.23,3.22.36-2.74-1.37.57a1.53,1.53,0,0,0-.9,2.2c3.28,5.73,9.25,2.48,14.31,1.14,1.35-.35,1.51-2.65,0-2.89-17.9-2.91-33.15-12.75-48-22.59-1.2-.8-2.93.83-2,2.05L275,426.63l2.35-1.81a47.79,47.79,0,0,1-6.83-8.62c-1-1.64-3.61-.13-2.59,1.52a51.15,51.15,0,0,0,7.3,9.22c1.17,1.16,3.39-.4,2.36-1.82l-10.86-14.94-2.05,2.05c15.05,10,30.58,19.95,48.72,22.89v-2.89c-2.49.66-9.05,3.5-10.92.24l-.89,2.2,1.37-.57c1.08-.45,1.63-2.09.36-2.74l-6.23-3.22-.76,2.8,13-.27a1.52,1.52,0,0,0,1.45-1.9l-1.3-6.3-.69,1.7,3.52-2a1.52,1.52,0,0,0-.36-2.74l-5.17-1-.4,3,8.58-.32a1.5,1.5,0,0,0,0-3l-16.85-.47v3c13.16-.35,26.31-.81,39.31-3.11,1.68-.29,1.26-3-.4-2.94-11.7.21-23.41.21-35.08-.62-6.16-.44-12.3-1.1-18.39-2.1-5.87-1-12.27-1.8-17.62-4.51-1.72-.87-3.24,1.71-1.52,2.59Z"/><path class="cls-7" d="M272.24,415.09a59.8,59.8,0,0,0,20,3.8l-.4-2.94a38.78,38.78,0,0,1-12.53.58c-1.46-.16-2.07,2.19-.75,2.8a43.55,43.55,0,0,0,14.1,3.9c1.52.15,2-2.11.76-2.8L289,417.94l-1.16,2.74,5.44,1.51.39-2.95-6.83.38a1.52,1.52,0,0,0-1.3,2.26,16.81,16.81,0,0,0,7.83,6.22c1.56.64,2.69-2,1.15-2.74a52.73,52.73,0,0,0-9.12-3.27c-1.33-.34-2.71,1.54-1.46,2.51a102.49,102.49,0,0,0,13.24,8.76l1.51-2.59L293.52,428a1.51,1.51,0,0,0-1.82,2.36,11.29,11.29,0,0,0,7.6,3.6c1.5.15,2-2.12.76-2.79q-13.62-7.26-26.64-15.53c-1.22-.77-2.94.81-2.05,2a50.35,50.35,0,0,0,13.11,12.72c1.41.94,3.1-1.23,1.82-2.35l-11.21-9.88-1.46,2.51c9.7,2.49,19.4,4.84,29.42,5.43,1.94.11,1.9-2.84,0-3-11.05-.95-22.89-2.23-31.2-10.37l-1.46,2.51c6.21,2.24,12.58,4.66,16.71,10.09l1.3-2.25a51.51,51.51,0,0,1-7-.2,1.51,1.51,0,0,0-1.06,2.56,87.45,87.45,0,0,0,12.6,8.75,1.5,1.5,0,0,0,1.52-2.59l-5.35-3.24c-1.7-1-3,1.46-1.51,2.59a25.86,25.86,0,0,1,4.79,4.79l1.46-2.5a102.41,102.41,0,0,1-13.07-6.47,1.51,1.51,0,0,0-1.81,2.36l6.06,6c1.18,1.17,3.31-.36,2.35-1.82a48.38,48.38,0,0,0-7.68-9.09c-1.19-1.1-3.38.36-2.36,1.81a27.1,27.1,0,0,0,4.52,5.05l1.82-2.36a101.16,101.16,0,0,1-10.81-7.28c-1.23-.95-3.37.25-2.36,1.82A109,109,0,0,0,294.94,450l1.81-2.36a31.1,31.1,0,0,1-16.22-17l-2.21,1.69,10.43,5.8c1.2.67,3-.79,2.05-2.05a15.73,15.73,0,0,0-6.48-5.25l-1.51,2.59a63.4,63.4,0,0,0,25.07,5.49,1.5,1.5,0,0,0,.4-2.94l-2.64-.62a1.5,1.5,0,0,0-.8,2.89,44.23,44.23,0,0,0,8.4,2.06v-2.89l-4.4,1.17a1.52,1.52,0,0,0-.36,2.74l1.31.9-.3-2.35-1.92,1c-1.65.26-1.17,2.41,0,2.9a5.89,5.89,0,0,0,2.8.62l-.4-2.94a18.37,18.37,0,0,1-5.87.19c-.3,0-6.16-1.46-5.27-2,1.2-.71.78-2.93-.76-2.79a27.7,27.7,0,0,1-11.59-1.39,1.51,1.51,0,0,0-1.46,2.51,74.39,74.39,0,0,0,8.13,6l1.16-2.74a47.54,47.54,0,0,1-10-5.75l-1.15,2.74a98.47,98.47,0,0,0,21.12,3.18c2,.09,1.86-2.77,0-3-1.65-.2-3.28-.43-4.67.56a1.54,1.54,0,0,0-.3,2.36l.2.23a1.5,1.5,0,0,0,1.82.24l.2-.12a1.52,1.52,0,0,0-.35-2.75,33,33,0,0,1-10-4.89l.3,2.36,1.13-1.14a1.52,1.52,0,0,0-.66-2.51l-2.88-.58-.4,2.94a91,91,0,0,0,14.71-1.8,1.51,1.51,0,0,0,.89-2.2,10.8,10.8,0,0,0-2.11-2.6l-.67,2.51c3-.94,7.19-1.44,9.81-3.37,1.65-1.22,1.63-5.2,3.13-5.54l-1.7-2.2a12.65,12.65,0,0,0-1.3,6.27c0,4.74-.39,8-5.89,9.28-7.16,1.65-14.71.46-21.43-2.26l-.39,2.94c4.25-.19,8.14-1.68,12.45-.95a20.57,20.57,0,0,1,11.13,5.9l.66-2.51c-2.61.78-5.85.59-8.27,1.5-.76.29-1.1.23-1.73.82a1.54,1.54,0,0,0,0,2.13l.26.3a1.47,1.47,0,0,0,1.81.24l.24-.18c.94-.69,1-2.45-.35-2.74a5.38,5.38,0,0,0-3.71.1c-1.33.38-1.52,2.63,0,2.9,9.27,1.6,17.42-.19,25.83-4.13C331.3,435.16,340.8,431.1,349,425a1.51,1.51,0,0,0-1.15-2.74l-1.68.28c-1.9.33-1.09,3.22.8,2.89l1.68-.28-1.16-2.74c-6.93,5.12-14.72,8.68-22.47,12.34-9.17,4.32-17.62,7.73-28,5.93v2.9l2.11-.11-.36-2.74-.24.18,1.82.23-.26-.31V443c.31-.29,3-.25,3.64-.35a39.3,39.3,0,0,0,5-1.2,1.52,1.52,0,0,0,.66-2.51,23.53,23.53,0,0,0-11-6.36c-5.24-1.29-9.52.3-14.73.53a1.51,1.51,0,0,0-.4,3c7.47,3,16.47,4.35,24.33,1.92,2.55-.79,4.8-2.12,6-4.6,1.83-3.81-.26-8.19,1.69-12a1.52,1.52,0,0,0-1.7-2.2,3.57,3.57,0,0,0-2.86,2.48c-.9,2.19-1.17,3.26-3.65,4.42a52.52,52.52,0,0,1-6.42,2,1.51,1.51,0,0,0-.66,2.51l1.64,2,.9-2.2a86.92,86.92,0,0,1-13.91,1.69c-1.61.07-2.13,2.6-.4,2.95l2.88.59-.66-2.51-1.13,1.14a1.52,1.52,0,0,0,.31,2.35,35.6,35.6,0,0,0,10.67,5.2L300,439l-.21.12,1.82.23-.2-.23-.3,2.35a4.5,4.5,0,0,1,3.15-.15v-3A94.89,94.89,0,0,1,284,435.29,1.51,1.51,0,0,0,282.8,438a50.26,50.26,0,0,0,10.71,6.05c1.62.68,2.53-1.87,1.16-2.74a66.7,66.7,0,0,1-7.52-5.53l-1.46,2.51a29.55,29.55,0,0,0,12.38,1.49l-.76-2.8c-2.21,1.33-2.09,3.79-.16,5.41,3.44,2.89,9.55,2.61,13.62,1.87,1.76-.32,1.19-2.83-.4-3l-2-.52v2.9a4.85,4.85,0,0,0,3.24-1.8,1.53,1.53,0,0,0-.31-2.36l-1.31-.9-.35,2.74,4.4-1.17c1.33-.35,1.52-2.67,0-2.89a44,44,0,0,1-8.4-2.06l-.8,2.89,2.65.62.39-3a59.59,59.59,0,0,1-23.56-5.08c-1.75-.78-3.28,1.8-1.51,2.59a13,13,0,0,1,5.4,4.17l2.05-2-10.42-5.8c-1-.58-2.71.41-2.2,1.7a34.14,34.14,0,0,0,17.6,18.83c1.41.66,3.27-1.23,1.82-2.35a106.59,106.59,0,0,1-24-26.09l-2.35,1.82a107.46,107.46,0,0,0,11.41,7.75c1.43.84,3.14-1.21,1.82-2.36a23.13,23.13,0,0,1-4.05-4.43l-2.35,1.82a45.34,45.34,0,0,1,7.21,8.48l2.36-1.81-6.06-6-1.82,2.35A107.26,107.26,0,0,0,293,436.11c1.57.64,2.25-1.5,1.46-2.51a28.93,28.93,0,0,0-5.4-5.26l-1.51,2.59,5.34,3.24,1.52-2.59a83.64,83.64,0,0,1-12-8.28l-1.06,2.56a51.51,51.51,0,0,0,7,.2c1,0,2-1.3,1.29-2.26-4.65-6.12-11.46-8.93-18.5-11.47-1.45-.52-2.48,1.5-1.46,2.51,8.91,8.72,21.44,10.22,33.32,11.24v-3c-9.76-.57-19.18-2.9-28.62-5.32-1.38-.36-2.63,1.48-1.46,2.5l11.21,9.88,1.82-2.36a46.13,46.13,0,0,1-12-11.64l-2.06,2.05q13,8.26,26.65,15.53l.75-2.8a7.16,7.16,0,0,1-5.48-2.72L292,430.55l5.14,2.81c1.69.93,3.2-1.65,1.51-2.59a98.53,98.53,0,0,1-12.63-8.3L284.56,425a47.76,47.76,0,0,1,8.41,3l1.15-2.74a12.94,12.94,0,0,1-6-4.85l-1.29,2.26,6.83-.38a1.51,1.51,0,0,0,.4-2.95l-5.43-1.5a1.51,1.51,0,0,0-1.16,2.74l4.43,2.49.76-2.79A38.91,38.91,0,0,1,280,416.74l-.76,2.79a41.43,41.43,0,0,0,13.33-.69c1.69-.36,1.25-2.91-.4-2.95a57.1,57.1,0,0,1-19.17-3.7c-1.81-.67-2.59,2.23-.8,2.9Z"/><path class="cls-7" d="M333.74,417.38a132.61,132.61,0,0,0,60.61-19.5c1.64-1,.14-3.61-1.51-2.59a129.46,129.46,0,0,1-59.1,19.09c-1.91.14-1.93,3.14,0,3Z"/><path class="cls-7" d="M372.45,407.22q-19.81,4-39.86,6.55c-1.89.24-1.91,3.24,0,3q20.45-2.61,40.66-6.65c1.89-.38,1.09-3.27-.8-2.9Z"/><path class="cls-7" d="M362.65,414.24a46.84,46.84,0,0,1,9.5-2.64L371,408.86a99.78,99.78,0,0,1-25.66,8l.79,2.9A148.71,148.71,0,0,1,368,416.68l-1.3-2.26-2.32,1.67,1.45,2.5a38.91,38.91,0,0,1,10.57-7.47l-1.51-2.59c-3.07,2.32-6.81,5.43-10.85,5.24-.61,0-1.19-.54-1.83-.53-1.57,0-3.33.85-4.75,0l.54,2.05,1.06-1.42c.88-1.17-.57-2.38-1.69-2.2l-7.45,1.18.8,2.9c2-.56,7.61-2.58,9.27-1.68,1.35.73,1.18-.22.83,1.53-.24,1.15-3,4.14-3.42,4.6-.88,1.07-.1,3,1.46,2.5a86.5,86.5,0,0,0,9.47-3.59l-2.21-1.7-.75,1.85c-.91,1.3.82,2.71,2.05,2l7.89-4.25-2.05-2-5.08,7,2.74,1.15a9.5,9.5,0,0,1,1.6-4.1l-2.59-1.52a19.29,19.29,0,0,1-3.93,5.18l2.35,1.82a27.8,27.8,0,0,1,11.7-9.83L378,412.62,376,415.46c-1,1.49,1.13,2.84,2.35,1.81l4.24-3.56-2.12-2.12-4.13,4.81,2.12,2.12a86.17,86.17,0,0,1,5.73-6.65l-2.12-2.12L381,411l2.51,1.46.39-2.79c.15-1.11-1-2.59-2.21-1.7a21.42,21.42,0,0,1-6.18,3.31l1.84,1.85.87-2.68a1.51,1.51,0,0,0-2.51-1.46,12.53,12.53,0,0,1-3.51,2.93l1.82,2.35,1.43-1-1.82-2.35-3.26,4.17c-1,1.28.22,3.24,1.81,2.36l7.91-4.36c1.7-.94.19-3.49-1.51-2.59a66,66,0,0,1-17.16,6.21l1.46,2.51a88.47,88.47,0,0,1,16.64-10.28c1.51-.72.43-3.38-1.15-2.74l-2.6,1,1.15,2.74a44.23,44.23,0,0,1,13.3-4.51l-1.16-2.74a45.86,45.86,0,0,0-8.56,7l2.12,2.12,8.49-9.61-2.36-.31c.78,1,1,1.34,2.3,1.52A1.53,1.53,0,0,0,393,402l.26-.83-1.7.69-.22-.11.23-1.81-.27.24,2.51,1.46.34-2.19c.19-1.18-1-2.48-2.2-1.69Q386,401.61,379.79,405l1.82,2.36,3-2.86-2.36-1.82-6,9.75a1.51,1.51,0,0,0,2.36,1.82l4.63-4.44c1.4-1.34-.73-3.46-2.12-2.12l-4.63,4.44,2.35,1.81,6-9.75a1.5,1.5,0,0,0-2.35-1.81l-3,2.86a1.5,1.5,0,0,0,1.81,2.35q6.21-3.36,12.11-7.19l-2.2-1.7-.35,2.19a1.52,1.52,0,0,0,2.51,1.46l.28-.24a1.54,1.54,0,0,0,.23-1.82,1.91,1.91,0,0,0-1.57-1.27,1.53,1.53,0,0,0-1.69.69A3.2,3.2,0,0,0,390,402l1.9-1.44-.51-.14a1.53,1.53,0,0,0-2.36-.31l-8.48,9.62c-1.27,1.44.77,3.53,2.12,2.12a43.5,43.5,0,0,1,7.95-6.56,1.5,1.5,0,0,0-1.15-2.74,47.3,47.3,0,0,0-14,4.81c-1.47.78-.45,3.38,1.15,2.75l2.6-1L378,406.34a92,92,0,0,0-17.25,10.74c-1.28,1,.15,2.79,1.46,2.51a69,69,0,0,0,17.87-6.51l-1.51-2.59-7.91,4.36,1.82,2.35,3.26-4.17a1.51,1.51,0,0,0-1.82-2.36,9.3,9.3,0,0,0-2,1.43c-1.32,1.13.37,3.18,1.82,2.36a14.65,14.65,0,0,0,4.11-3.4l-2.5-1.46-.87,2.68a1.51,1.51,0,0,0,1.85,1.84,24.59,24.59,0,0,0,6.9-3.61L381,408.82l-.39,2.79c-.18,1.34,1.38,2.68,2.51,1.46l1.11-1.2c1.3-1.41-.78-3.52-2.12-2.12a84.33,84.33,0,0,0-5.73,6.65c-1.15,1.48.84,3.61,2.12,2.12l4.13-4.81a1.5,1.5,0,0,0-2.12-2.12l-4.24,3.56,2.36,1.82,1.91-2.83c.92-1.37-.82-2.62-2.05-2.06A30.58,30.58,0,0,0,365.71,423c-1,1.45,1.16,2.95,2.36,1.82a21.6,21.6,0,0,0,4.4-5.78,1.5,1.5,0,0,0-2.59-1.52,16.28,16.28,0,0,0-1.9,4.83,1.5,1.5,0,0,0,2.74,1.15l5.08-7c.93-1.29-.84-2.71-2.06-2.05l-7.88,4.25,2.05,2.05a4,4,0,0,0,1.06-2.56,1.52,1.52,0,0,0-2.21-1.69,80.09,80.09,0,0,1-8.75,3.29l1.46,2.51c2.09-2.55,6.26-6.39,5.59-10a1.52,1.52,0,0,0-1.05-1.05c-4.23-1.27-10,.41-14.14,1.54-1.9.53-1.07,3.19.8,2.9l7.45-1.19-1.7-2.2-1.06,1.42a1.51,1.51,0,0,0,.54,2.05c1.46.92,2.16.63,3.87.7s3.76,1.14,5.53.85c3.91-.64,8-3.91,11.05-6.22a1.5,1.5,0,0,0-1.51-2.59,41.35,41.35,0,0,0-11.18,7.94,1.51,1.51,0,0,0,1.46,2.51,7.12,7.12,0,0,0,4.12-3,1.51,1.51,0,0,0-1.29-2.26,155,155,0,0,0-22.61,3.21c-1.91.42-1.08,3.22.79,2.9a103,103,0,0,0,26.38-8.34c1.65-.78.4-3-1.15-2.75a46.69,46.69,0,0,0-9.5,2.65c-1.78.7-1,3.61.79,2.89Z"/><path class="cls-7" d="M391.71,397.72c-2.66,9.59-8.2,18.68-12.58,27.58a1.5,1.5,0,0,0,2.59,1.51A52.08,52.08,0,0,0,390,408.25a1.5,1.5,0,0,0-2.89-.8,61.09,61.09,0,0,1-4.32,10.84,1.5,1.5,0,0,0,2.59,1.52,49.66,49.66,0,0,0,6.43-11.4c.63-1.56-2-2.71-2.74-1.16a164.48,164.48,0,0,1-17.88,30.44c-1.15,1.55,1.46,3.05,2.59,1.52a165.13,165.13,0,0,0,17.88-30.44l-2.75-1.16a46.22,46.22,0,0,1-6.12,10.68l2.59,1.52A65.15,65.15,0,0,0,390,408.25l-2.89-.8a50,50,0,0,1-8,17.85l2.59,1.51c4.52-9.18,10.13-18.38,12.88-28.29a1.5,1.5,0,0,0-2.89-.8Z"/><path class="cls-7" d="M372.48,424.17a35.88,35.88,0,0,0-4.05,5.07c-.94,1.41,1.22,3.09,2.35,1.82a47.22,47.22,0,0,0,8.65-14c.58-1.43-1.53-2.49-2.5-1.46q-4.08,4.26-8.42,8.22l2.56,1.06a14.26,14.26,0,0,1,2.37-6.14l-2.59-1.52-3.51,5.42,2.59,1.51.48-.91L367.67,422l-.78,2c-.54,1.4,1.54,2.54,2.51,1.46q6.47-7.25,13.24-14.17l-2.5-1.46a22.12,22.12,0,0,1-3,7c-.91,1.42,1.24,3.12,2.36,1.82a60.91,60.91,0,0,0,5.84-8l-2.74-1.15L381.17,412l2.5,1.46,1.09-2.63-2.89-.8-2.65,6.67c-.65,1.63,1.87,2.54,2.74,1.16l4.86-7.75-2.59-1.51q-2.5,5.21-4.59,10.6c-.63,1.66,1.86,2.51,2.75,1.16A16.71,16.71,0,0,0,384,417.2c.64-1.65-1.86-2.51-2.74-1.15a58.17,58.17,0,0,1-3.72,5.09l2.56,1.06a4.55,4.55,0,0,0,0-1.8c-.1-1.14-1.67-2.18-2.56-1.06a15.94,15.94,0,0,0-2.26,3.62c-.78,1.73,1.59,3.22,2.59,1.52a17.57,17.57,0,0,0,2.05-5.16,1.51,1.51,0,0,0-2.5-1.46,110.31,110.31,0,0,0-10,9.21l2.56,1.06,0-2.19a1.51,1.51,0,0,0-2.56-1.06L363,430l2.12,2.12a37.83,37.83,0,0,1,4.71-4.76l-2.35-1.82-1.63,3.78a1.51,1.51,0,0,0,2.35,1.82c2.09-2,4.25-3.83,6.52-5.58l-2.05-2.05a10.92,10.92,0,0,1-3.48,4.38l2.05,2.05a15.73,15.73,0,0,1,2.44-3.45l-2.56-1.06-.05,1.44c-.18,1.13,1,2.55,2.21,1.7.36-.63.8-.79,1.32-.51a1.51,1.51,0,0,0,1.82-.23l3.67-3.51-2.36-1.81-.84,1.35c-.89,1.42,1.21,3.11,2.35,1.82a16,16,0,0,0,2-2.69c1-1.63-1.55-3.14-2.59-1.51l-1.55,2.07,2.36,1.82.84-1.35a1.5,1.5,0,0,0-2.35-1.82l-3.67,3.51,1.82-.24-1.1-.77a1.44,1.44,0,0,0-1.51,0L371.71,426l2.21,1.69a8.4,8.4,0,0,0,.15-2.24,1.52,1.52,0,0,0-2.56-1.06,18.42,18.42,0,0,0-2.91,4.05c-.64,1.21.76,3,2,2.06a13.81,13.81,0,0,0,4.56-5.46c.56-1.18-.73-3.07-2-2.05-2.48,1.91-4.85,3.9-7.13,6l2.36,1.82,1.63-3.77a1.51,1.51,0,0,0-2.36-1.82A36.52,36.52,0,0,0,363,430c-1.21,1.46.83,3.58,2.12,2.12l4.51-5.11L367,425.94l0,2.19a1.52,1.52,0,0,0,2.56,1.06,111.66,111.66,0,0,1,10-9.21L377,418.52a15.35,15.35,0,0,1-1.75,4.44l2.59,1.52a9.74,9.74,0,0,1,1.79-3l-2.56-1.06a4.55,4.55,0,0,1,0,1.8,1.51,1.51,0,0,0,2.56,1.06,65.23,65.23,0,0,0,4.19-5.7l-2.74-1.15a9.22,9.22,0,0,1-1.28,2.4l2.74,1.16q1.93-5,4.28-9.89a1.5,1.5,0,0,0-2.59-1.51l-4.86,7.74,2.74,1.16,2.65-6.67c.72-1.8-2.17-2.55-2.89-.8l-1.09,2.64c-.58,1.4,1.55,2.52,2.51,1.46a10.89,10.89,0,0,0,2.21-3.68c.62-1.63-1.88-2.55-2.74-1.15a57.82,57.82,0,0,1-5.37,7.37l2.35,1.82a24.15,24.15,0,0,0,3.29-7.75,1.51,1.51,0,0,0-2.51-1.46q-6.78,6.93-13.24,14.17l2.5,1.46.78-2c.61-1.59-1.95-2.64-2.74-1.15l-.48.91a1.5,1.5,0,0,0,2.59,1.51l3.51-5.41c1.05-1.63-1.54-3.13-2.59-1.52a17.35,17.35,0,0,0-2.78,7.66c-.18,1.39,1.71,1.84,2.56,1.06q4.35-4,8.42-8.22l-2.51-1.46a43.1,43.1,0,0,1-7.88,12.71l2.36,1.82a32.54,32.54,0,0,1,3.58-4.46c1.33-1.4-.79-3.52-2.12-2.12Z"/><path class="cls-7" d="M295.29,442.63l2.23-.4a1.52,1.52,0,0,0,.36-2.75c-2.9-1.48-5.68-.33-6.85,2.66l2.5-.66-1.23-2.78-2.74,1.15a7.77,7.77,0,0,0,4.66,3.32c1.17.33,2.5-1.11,1.7-2.2a57.73,57.73,0,0,0-16.09-15,1.51,1.51,0,0,0-2.2,1.69c2.09,6.41,8.28,7.88,14.27,8.95,9.93,1.78,19.86,3.52,29.8,5.28l-.36-2.74c-4.3,2.64-10,2.52-14.9,3.11a1.5,1.5,0,0,0,0,3c3.72.38,7.42.57,11.15.6v-3l-3.52,0v3l2.17-.14a1.5,1.5,0,0,0,0-3l-4.49-.52v3q15.06-.12,30.12-1a1.5,1.5,0,0,0,0-3l-6.82-.49,1.06,2.56a7.06,7.06,0,0,1,4.44-1.81c1.68-.23,1.27-3-.4-2.95a8.33,8.33,0,0,0-5.54,2.14c-1.08.88-.12,2.51,1.06,2.56,4.87.24,9.75.57,14.63.7,4.16.11,8.33-1.66,12.32-2.76l-1.15-2.74-.29.16,1.82.23-.3-.26.24,1.82a19.35,19.35,0,0,1,2.46-2.81c1.14-1.17-.41-3.4-1.82-2.35a7,7,0,0,1-2.74,1.58l2.06,2,2-3.69c.67-1.22-.76-3-2.05-2a43.2,43.2,0,0,1-7.17,4.19l1.82,2.35,4.13-4.6a1.5,1.5,0,0,0-2.12-2.12A32.71,32.71,0,0,1,349,438.9l1.15,2.74L361.6,436l-2.21-1.69-.41,1.77a1.51,1.51,0,0,0,2.51,1.46c2.9-2.48,6.37-3.76,9.67-5.59l-2.26-1.3-1.6,2.84,2.05,2.05,1.54-1.88-2.5-1.46-.3,1.31a1.51,1.51,0,0,0,2.74,1.15c2.5-3.26,5.72-5.22,6.77-9.38a62.3,62.3,0,0,0,2.1-14.59c0-2.22-1.14-3.45-3.44-3.5-2.14,0-4.56,1.12-6.64,1.53a33.19,33.19,0,0,1-11.11.44v2.89l21.62-5.66a1.51,1.51,0,0,0-.8-2.9l-21.62,5.67c-1.33.35-1.52,2.68,0,2.89a34.55,34.55,0,0,0,9.31.12,49.31,49.31,0,0,0,5.91-1.14c3.14-.78,3.22-.36,3.33,2.76a39.13,39.13,0,0,1-1.69,11.34c-1.06,3.28-4.29,5.34-6.33,8l2.75,1.15.29-1.31a1.52,1.52,0,0,0-2.51-1.46,15.19,15.19,0,0,0-2,2.5c-.83,1.21.84,2.9,2.05,2a6.42,6.42,0,0,0,3.09-5.43,1.51,1.51,0,0,0-2.25-1.29c-3.58,2-7.14,3.37-10.28,6.06l2.5,1.46.42-1.78a1.52,1.52,0,0,0-2.21-1.69l-11.47,5.63a1.51,1.51,0,0,0,1.16,2.75,37.11,37.11,0,0,0,11.87-6.7L359.52,433l-4.13,4.6a1.51,1.51,0,0,0,1.82,2.36,43.11,43.11,0,0,0,7.16-4.19l-2.05-2.06-2,3.69a1.52,1.52,0,0,0,2.05,2.06,7.07,7.07,0,0,0,2.73-1.58l-1.81-2.36a14,14,0,0,0-2.93,3.42,1.53,1.53,0,0,0,.23,1.81l.3.26a1.56,1.56,0,0,0,1.82.24l.28-.16a1.51,1.51,0,0,0-1.15-2.75c-4.51,1.25-8.64,2.67-13.36,2.57-4.26-.09-8.54-.4-12.8-.61l1.06,2.56,3.42-1.26-.4-2.94a10.94,10.94,0,0,0-5.76,2.58c-1.1.89-.09,2.48,1.06,2.56l6.82.49v-3q-15.06.83-30.12,1c-2,0-1.87,2.78,0,3l4.49.52v-3l-2.17.14c-1.9.13-1.95,3,0,3l3.52,0a1.5,1.5,0,0,0,0-3c-3.73,0-7.43-.22-11.15-.6v3c5.43-.66,11.64-.58,16.41-3.52,1-.62,1-2.5-.36-2.74l-22.11-3.92c-6.16-1.09-17.51-1-19.86-8.22l-2.2,1.7a54.06,54.06,0,0,1,15,13.94l1.69-2.2-2.87-1.94a1.51,1.51,0,0,0-2.74,1.15,8.48,8.48,0,0,0,2,4.11c.79,1,2.14.27,2.51-.66l2.44-.87.36-2.74-2.23.41c-1.9.34-1.1,3.23.8,2.89Z"/><path class="cls-7" d="M385.75,406.5c-5.46,4.13-12.27,8.6-16.32,14.19-2.36,3.26-2.58,7.16-5.24,10.37-2.51,3-5.34,5.81-8,8.69l2.36,1.82a22.6,22.6,0,0,1,2.31-4.17,1.51,1.51,0,0,0-1.69-2.2c-3.32.91-6.58,1.94-9.81,3.11-1.81.65-1,3.55.79,2.89l4.33-1.55-1.7-2.2A8,8,0,0,1,351,440a1.51,1.51,0,0,0,1.81,2.36l6-3.52-2.2-1.7a13.82,13.82,0,0,1-3.06,4.93l2.35,1.81a24.09,24.09,0,0,1,4.56-5.3l-2.56-1.06.15,1.7c.11,1.14,1.66,2.17,2.56,1.06a72.6,72.6,0,0,1,8.78-9.1l-2.51-1.46a3.69,3.69,0,0,0-.07,2,1.47,1.47,0,0,0,1,1l.42.12-.67-2.5-5.07,4.6c-1.07,1,0,3.06,1.45,2.5a10,10,0,0,1,3.25-1l-1.69-2.2a13.12,13.12,0,0,1-3.26,3.22L364,440l5.78-4.81L367.7,433l-5.42,5.4c-1.38,1.37.71,3.44,2.12,2.12,1.67-1.56,3.39-3,5.2-4.43l-2.36-1.82a21.44,21.44,0,0,1-4.36,6.12l2.35,1.82a46.91,46.91,0,0,1,2.82-4.31c1.07-1.45-1.15-2.84-2.36-1.81l-1.17,1c-1.49,1.26.64,3.31,2.12,2.12A75.8,75.8,0,0,0,376,430.3l-2.35-1.81-3.54,5.84,2.59,1.51,6.94-12.34-2.8-.76a16.12,16.12,0,0,1-1.16,5.23,1.51,1.51,0,0,0,2.2,1.7,5.6,5.6,0,0,0,2.2-2.25c.89-1.43-1.21-3.09-2.36-1.82-2.07,2.27-3.12,4.9-4.92,7.28-2.59,3.43-8.2,5.68-11.78,7.86l1.82,2.36a41.73,41.73,0,0,1,8.77-5.48l-2.05-2.05c-1.48,2.61-5.46,4.46-7.86,6.06l-7.46,5c-1.6,1.07-.1,3.67,1.51,2.59l10.78-7.2c2.21-1.48,4.3-2.58,5.62-4.91a1.52,1.52,0,0,0-2.05-2.06,44.57,44.57,0,0,0-9.38,6c-1.33,1.08.39,3.23,1.82,2.35,3.46-2.11,7.6-4,10.7-6.62,2.87-2.45,4.06-6.19,6.6-9l-2.36-1.82-1.12,1.18,2.21,1.69a19.57,19.57,0,0,0,1.27-6A1.51,1.51,0,0,0,377,422l-6.94,12.35a1.5,1.5,0,0,0,2.59,1.51L376.2,430c.86-1.43-1.21-3.12-2.36-1.82a76.52,76.52,0,0,1-9.32,8.95l2.12,2.12,1.17-1-2.35-1.82a43.57,43.57,0,0,0-2.82,4.3,1.51,1.51,0,0,0,2.36,1.82,23.34,23.34,0,0,0,4.83-6.72,1.51,1.51,0,0,0-2.35-1.82c-1.81,1.4-3.53,2.87-5.2,4.43l2.12,2.12,5.42-5.4c1.39-1.38-.66-3.33-2.12-2.12l-5.78,4.81c-1.3,1.07.45,3.37,1.82,2.35a21,21,0,0,0,4.33-4.3c.86-1.14-.56-2.44-1.69-2.2a9.7,9.7,0,0,0-3.25,1l1.46,2.51,5.08-4.6a1.52,1.52,0,0,0-.67-2.51l.72.49a1.51,1.51,0,0,0-2.51-1.46,72.6,72.6,0,0,0-8.78,9.1l2.56,1.06-.15-1.7a1.52,1.52,0,0,0-2.56-1.06,26.36,26.36,0,0,0-5,5.91c-.89,1.42,1.23,3.12,2.36,1.82a21.6,21.6,0,0,0,3.83-6.25c.52-1.26-1.17-2.31-2.2-1.7l-6,3.53,1.82,2.35a14.21,14.21,0,0,0,2.28-3.2c.57-1.07-.39-2.67-1.69-2.2l-4.32,1.55.79,2.89c3.24-1.16,6.5-2.2,9.81-3.11l-1.69-2.21a23.27,23.27,0,0,0-2.31,4.17c-.63,1.44,1.1,3.18,2.35,1.82,4.16-4.51,9.48-8.91,11.65-14.79,1.48-4,3.51-6.47,6.72-9.33q5.11-4.54,10.59-8.66c1.52-1.15,0-3.76-1.52-2.59Z"/><path class="cls-7" d="M294.52,445.9c11.54,1.11,23.13,1.42,34.73,1.5,11.36.07,21.21,0,31.85-4.38l-1.46-2.5c-6,5-17.63,3.29-25,3.56l.4,2.95,17.52-5.33L351.41,439c-2.71,1.33-4.44,3.45-6.61,5.46-3.84,3.58-8.92,3.15-13.83,3.19a187.18,187.18,0,0,1-27.59-1.87l-.4,2.95,31.93-.66-.4-2.95c-2,.62-4,1.13-6.11,1.56-1.67.34-1.27,2.95.4,2.94A167,167,0,0,0,357.28,447l-1.16-2.74c-7.82,3.88-16.43,4-25,3.94v3a96.78,96.78,0,0,0,18.32-2.46l-.79-2.9a98.38,98.38,0,0,1-27.79,2.38,128.41,128.41,0,0,1-14.22-1.89c-4.05-.7-12.12,0-14.44-3.83-1-1.64-3.6-.14-2.59,1.52,1.93,3.17,4.9,3.93,8.45,4.26,5.83.54,11.52,1.77,17.33,2.45a100.5,100.5,0,0,0,34-2c1.89-.43,1.09-3.28-.79-2.9a92.61,92.61,0,0,1-17.53,2.36,1.5,1.5,0,0,0,0,3c9.12,0,18.17-.22,26.49-4.35,1.62-.81.42-3-1.15-2.75a161.63,161.63,0,0,1-27.68,2.52l.4,2.95c2.07-.42,4.09-.94,6.11-1.56a1.5,1.5,0,0,0-.4-2.94l-31.93.66c-1.62,0-2.14,2.7-.4,2.94a190.3,190.3,0,0,0,30.26,1.95c3.41-.06,7.33.16,10.49-1.38,3.77-1.83,5.83-5.8,9.59-7.65,1.53-.75.46-3.23-1.15-2.74l-17.51,5.33c-1.58.47-1.35,3,.39,2.94,8.51-.31,20.08,1.4,27.12-4.44,1.11-.93-.09-3.08-1.46-2.51-5.42,2.25-10.78,4-16.69,4.23-5.42.23-10.88.07-16.31,0-10.95-.09-21.89-.43-32.79-1.48-1.92-.19-1.91,2.82,0,3Z"/><path class="cls-7" d="M292.26,447a16.59,16.59,0,0,1,2.13,3.06l2.05-2.05a9.08,9.08,0,0,1-2.4-1.46,1.54,1.54,0,0,0-2.12,0,1.52,1.52,0,0,0,0,2.12,11.46,11.46,0,0,0,3,1.93,1.5,1.5,0,0,0,2.05-2,20.49,20.49,0,0,0-2.6-3.67,1.51,1.51,0,0,0-2.12,0,1.54,1.54,0,0,0,0,2.12Z"/><path class="cls-7" d="M296.58,449c6.43.35,12.4,2.87,18.67,4.12a108.22,108.22,0,0,0,17.87,1.78c5.18.15,11.38,1,16.41-.53,5.23-1.59,9.82-6.33,14.68-8.92,1.71-.91.19-3.5-1.51-2.59a70,70,0,0,0-7,4.2c-2.45,1.67-4.78,3.94-7.74,4.66-5.6,1.38-12.8.33-18.52,0a88.06,88.06,0,0,1-17.84-2.58c-5-1.32-9.8-2.89-15-3.18-1.93-.1-1.93,2.9,0,3Z"/><path class="cls-7" d="M355.6,445.44c-10.52,5.8-22.58,5.58-34.25,5.2-1.93-.07-1.93,2.93,0,3,12.24.4,24.74.46,35.77-5.6,1.69-.94.18-3.53-1.52-2.6Z"/><path class="cls-7" d="M359.83,446.8c2.08-2.1,5.08-3,7.49-4.72A31,31,0,0,0,373,437c1.08-1.23-.29-3.28-1.81-2.35-2.3,1.39-3.58,3.47-5.19,5.54-2.28,2.93-5.38,4.23-8.87,5.19l1.69,2.2c3.24-4.5,8.21-7,13.14-9.31l-1.82-2.36-2.55,2.46a1.51,1.51,0,0,0,1.82,2.36,15.23,15.23,0,0,0,4.78-3.92c1.22-1.48-.89-3.62-2.12-2.12a13.47,13.47,0,0,1-4.17,3.45l1.82,2.35,2.54-2.45c1.3-1.26-.34-3-1.82-2.36-5.46,2.52-10.63,5.41-14.21,10.38-.79,1.1.51,2.53,1.69,2.21a21.28,21.28,0,0,0,8.11-3.76c2.58-2.12,3.79-5.52,6.67-7.27l-1.82-2.36a27.92,27.92,0,0,1-6.69,5.71c-2.25,1.33-4.6,2.25-6.47,4.13a1.5,1.5,0,0,0,2.12,2.12Z"/><path class="cls-6" d="M331.51,408.47l8.63-1.64-.8-2.89a137.69,137.69,0,0,1-20.61,2.84l.76,2.8a28,28,0,0,1,16.44-3.05v-3l-6.07.4c-1.91.13-1.95,3.06,0,3q7.32-.19,14.64,0l-.76-2.79a22.05,22.05,0,0,1-6.58,2.53l.8,2.9,1.39-.37c1.58-.42,1.32-3.16-.4-2.95l-17.49,2.15v3l7.27-.9-.75-2.8c-5,2.88-11.21,1-16.58.2L297,405.7l-14.44-2.18c-5.19-.79-11-1-15.68-3.44l-1.16,2.74a194.66,194.66,0,0,0,54,2.73c1.89-.17,2-3.06,0-3q-18.35.57-36.69-.48c-1.92-.11-1.92,2.89,0,3q18.34,1.05,36.69.48v-3a192,192,0,0,1-53.18-2.62c-1.57-.3-2.76,1.91-1.16,2.74,5,2.61,10.88,2.91,16.4,3.74l18.27,2.76c5.93.9,11.86,1.95,17.82,2.68,4.16.52,7.89.53,11.6-1.58,1.21-.69.78-3-.76-2.8l-7.27.9c-1.89.24-1.92,3.24,0,3L339,409.22l-.4-3-1.39.37c-1.88.5-1.08,3.3.8,2.9a24.63,24.63,0,0,0,7.3-2.84,1.52,1.52,0,0,0-.76-2.8q-7.32-.16-14.64,0v3l6.07-.4a1.5,1.5,0,0,0,0-3A30.65,30.65,0,0,0,318,407a1.51,1.51,0,0,0,.75,2.79,143.18,143.18,0,0,0,21.41-2.95c1.89-.37,1.09-3.25-.8-2.89l-8.62,1.63c-1.9.36-1.1,3.26.79,2.9Z"/><path class="cls-6" d="M261.35,402a2.84,2.84,0,0,1,.3,1.21l1.15-.34a14.14,14.14,0,0,1-1.53-2.45,6.05,6.05,0,0,0-1.51-2.21l-.72.9L262.8,401a.68.68,0,0,0,.84-.24.53.53,0,0,0-.26-.75,10,10,0,0,1-1.55-1.12c-.54-.48-1.44.3-.84.82A11,11,0,0,0,262.8,401l.58-1-3.75-1.86c-.56-.28-1.28.45-.72.9a5.54,5.54,0,0,1,1.27,1.94,15.1,15.1,0,0,0,1.57,2.51.64.64,0,0,0,1.15-.33,3.6,3.6,0,0,0-.36-1.51.68.68,0,0,0-.79-.35c-.27.08-.55.41-.4.71Z"/><path class="cls-6" d="M266.26,404a3.24,3.24,0,0,0-1.61-1.86,5.48,5.48,0,0,1-1.74-1.22c-.14-.21-.64-.49-.86-.21-.77,1-.13,2.18.39,3.1a9.26,9.26,0,0,1,1,3.46l.81-.12a1.16,1.16,0,0,1-.33-.79.83.83,0,0,0-.55-.67c-.22-.07-.56,0-.54.28a2.72,2.72,0,0,0,.88,1.81c.19.18.88.35.82-.12a12.69,12.69,0,0,0-.8-3.39c-.35-.78-1.37-1.88-.69-2.75l-.85-.22a5.26,5.26,0,0,0,1.84,1.43c.56.32,1.07.55,1.23,1.13a.85.85,0,0,0,.67.58.33.33,0,0,0,.37-.44Z"/><path class="cls-6" d="M261.78,405.24l-2.33-6.16a1.94,1.94,0,0,0-.39-.65c-.06-.06-.22-.21-.18,0,.49,2.47,1.18,5.14,3.15,6.87.08.06.14,0,.12-.07l-.6-2.62c-.14-.63-.21-1.74-.8-2.17-.17-.12-.28-.09-.39.08a1.28,1.28,0,0,0,0,1,9.22,9.22,0,0,0,.86,2.14s.38.62.43.45c.2-.69-.31-1.48-.59-2.08l-1.1-2.47a2.08,2.08,0,0,0-.32-.51s-.2-.21-.19-.08c.13,3.49,2,6.58,3.85,9.44l-.17-.71a5.39,5.39,0,0,1-1.08-1.43c0-.09-.33-.67-.45-.63s0,.36.07.46q.48,1.05,1,2.1c0,.06.45.77.51.6a2.71,2.71,0,0,0,.13-1.35h-.19l.64.81c.14.18.28.45.52.49,0,0,.06,0,.06,0,.12-.23-.18-.63-.3-.82s-.21-.38-.33-.34h0c-.1,0,.36,1.17.61,1.09h0l-.33-.34,0,.05-.29-.71s-.8-.95-.88-1.05-.21-.2-.18,0a2.24,2.24,0,0,1-.13,1.2l.51.6q-.51-1-1-2.1l-.38-.17a10.22,10.22,0,0,0,1.87,2.61c.12.12.1,0,.1-.11a1.65,1.65,0,0,0-.28-.6c-1.56-2.45-3.16-5-3.27-8l-.51-.6.81,1.81c.24.53.79,1.3.62,1.89l.43.45a5.74,5.74,0,0,1-.46-1.19c0-.13-.21-1,.2-.82l-.58-1,.87,3.85.11-.06c-1.42-1.25-1.75-3.21-2.11-5l-.56-.67,2.34,6.16c.07.19.25.65.45.73s.1-.14,0-.28Z"/><path class="cls-6" d="M264.51,408.48l5.05-.69c.09,0-.28-.52-.31-.56s-.31-.42-.49-.4l-5.05.7c-.09,0,.28.52.31.55s.31.43.49.4Z"/><path class="cls-6" d="M265,407.8h2.25a1.1,1.1,0,0,0,.47-.13.68.68,0,0,0,.29-.29c.11-.27-.15-.39-.38-.39h-2.25a1,1,0,0,0-.47.14.65.65,0,0,0-.29.28c-.11.27.15.39.38.39Z"/><path class="cls-6" d="M366.61,399.87l-3.87.49.4,2.94a52.65,52.65,0,0,0,10.14-2.9c1.76-.7,1.13-3.38-.79-2.9l-7.11,1.8,1.16,2.74a59.32,59.32,0,0,1,17.24-6.52l-.79-2.9c-21.6,7.76-43.44,8.92-66.16,9.57-1.92.06-1.93,3.06,0,3,23-.66,45.08-1.82,66.95-9.67a1.5,1.5,0,0,0-.79-2.9,62.25,62.25,0,0,0-18,6.83,1.51,1.51,0,0,0,1.16,2.74l7.1-1.79-.79-2.9a52.77,52.77,0,0,1-10.15,2.91c-1.64.3-1.29,3.16.4,2.95l3.87-.49c1.89-.24,1.92-3.24,0-3Z"/><path class="cls-6" d="M389.71,389.62c-3,2.28-6.4,3.89-9.48,6s-5.77,4.4-8.55,6.72c-1.48,1.24.65,3.36,2.12,2.12a103.5,103.5,0,0,1,9-6.94c2.79-1.84,5.8-3.31,8.46-5.34,1.51-1.16,0-3.77-1.51-2.59Z"/><path class="cls-6" d="M391.8,394.34c1.93-1.72,3.78-3.75,3.76-6.5a1.5,1.5,0,0,0-3,0c0,1.87-1.6,3.23-2.88,4.37-1.45,1.29.68,3.41,2.12,2.13Z"/><path class="cls-6" d="M394.86,384.7a15,15,0,0,1-4.26,2.84l.32.43c1.7-1,3.36-2.12,5-3.3l-.61-.14-.32,1.63.72-.12a2.66,2.66,0,0,1,.18-1.42h-.72c-.29,3.19-1.28,6.32-1,9.56,0,.32.71.16.73-.13a13.54,13.54,0,0,1,.47-2.43,17.31,17.31,0,0,0,.38-2.36c.17-1.71.26-3.44.38-5.15,0-.38-.71-.29-.73,0-.12,1.71-.21,3.44-.38,5.15a17.31,17.31,0,0,1-.38,2.36,12.74,12.74,0,0,0-.48,2.43l.73-.12c-.3-3.18.7-6.28,1-9.42,0-.36-.62-.26-.72,0a3.25,3.25,0,0,0-.2,1.69c.05.35.68.14.73-.12l.33-1.63c.06-.32-.47-.25-.61-.14q-2.32,1.7-4.8,3.2c-.43.25-.06.6.32.43a15.49,15.49,0,0,0,4.54-3.05c.14-.12.05-.29-.09-.35a.48.48,0,0,0-.51.13Z"/><path class="cls-6" d="M375,404.44c1.75-1.1,3.84-1.5,5.65-2.5a34.62,34.62,0,0,1,5.3-2.91c.44-.15.31-.68-.14-.53a36.44,36.44,0,0,0-5.49,3c-1.87,1-4,1.46-5.81,2.6-.42.26.17.56.49.36Z"/><path class="cls-6" d="M369.65,405.82a18.77,18.77,0,0,0,6.07-1.62c.32-.15.24-.39-.1-.37a25.61,25.61,0,0,0-6.69,1.43c-.41.15-.14.43.2.35l3.55-.87-.1-.38-1.53.46c-.31.09-.44.46,0,.4l1.53-.22v-.4l-6.37,1.27c-.34.07-.42.45,0,.4,5.87-.67,11.17-3.4,16.33-6.11.43-.22-.2-.35-.45-.23-5,2.62-10.11,5.27-15.79,5.92v.4l6.37-1.27c.34-.07.42-.46,0-.4l-1.53.22v.4l1.53-.46c.43-.13.34-.49-.1-.38l-3.56.87.2.34a24.3,24.3,0,0,1,6.31-1.32l-.1-.37a17.6,17.6,0,0,1-5.69,1.53c-.36,0-.59.46-.09.41Z"/><path class="cls-6" d="M297,451.71a25.83,25.83,0,0,0,7.62,5.52c.15.07.82-.16.62-.3a30.7,30.7,0,0,1-4.14-3.67l-.68.27,3.81,2.76.62-.3a34.76,34.76,0,0,1-8.27-4.77c-.18-.14-.86.11-.68.27,3.95,3.38,8.46,7,14,6.3.34,0,.61-.43.11-.37-5.29.63-9.69-3-13.43-6.2l-.68.27a35.27,35.27,0,0,0,8.37,4.83c.15.06.84-.16.63-.3l-3.8-2.76c-.16-.12-.87.07-.68.27a29.54,29.54,0,0,0,4.15,3.67l.63-.3a25.73,25.73,0,0,1-7.53-5.46c-.16-.17-.85.09-.67.27Z"/><path class="cls-6" d="M334.9,458.24a38.12,38.12,0,0,1,5.45.12l0-.18a14.87,14.87,0,0,1-3.92,1.05c-.06,0-.7.19-.46.27a3.68,3.68,0,0,0,3-.35c.28-.15-.23-.12-.31-.1a37.42,37.42,0,0,1-8.82,1.14l-.12.22,1.51-.57c.48-.18,0-.25-.25-.15l-1.5.57c-.09,0-.4.22-.12.22a39.92,39.92,0,0,0,9.36-1.23l-.31-.1a2.19,2.19,0,0,1-1.82.08l-.46.27a17.38,17.38,0,0,0,4.65-1.24c.13-.06.23-.17,0-.19a40.25,40.25,0,0,0-5.6-.11c-.19,0-.79.3-.32.28Z"/><path class="cls-6" d="M347.8,455.3a10.32,10.32,0,0,1-2.14.38l.21.43a3.44,3.44,0,0,1,1-.58l.09,0,.15,0,.27-.07h.09l.16,0c.1,0,.21,0,.31,0l0-.51c-.75.16-1.5.33-2.25.53-.14,0-.34.17-.29.34s.29.19.43.15c.74-.19,1.49-.37,2.24-.52.14,0,.31-.16.3-.31s-.19-.21-.33-.2a4.4,4.4,0,0,0-2.62,1c-.08.07-.16.18-.11.29a.35.35,0,0,0,.32.14,12.23,12.23,0,0,0,2.33-.41c.15,0,.35-.17.3-.35s-.29-.19-.43-.15Z"/><path class="cls-6" d="M331.36,460.23a48.72,48.72,0,0,0,8.32-1.33l-.29-.36a8.43,8.43,0,0,1-3.18,1.37l.29.35a4.65,4.65,0,0,1,2.43-.71l-.25-.32L338,460c-.26.3.27.34.45.26l.93-.39c.41-.18.12-.46-.21-.4a40.84,40.84,0,0,1-9,.66l-.27.47h3.2c.29,0,.77-.41.26-.47l-6.12-.81-.17.47,3.72-.17c.39,0,.58-.49.08-.47l-3.72.17c-.29,0-.62.41-.17.47l6.12.81.26-.47h-3.19c-.3,0-.76.45-.27.47a42.38,42.38,0,0,0,9.41-.7l-.21-.4-.92.4.45.27.64-.73c.19-.22-.06-.32-.25-.32a5.7,5.7,0,0,0-3,.91c-.35.22,0,.4.29.35a9.74,9.74,0,0,0,3.53-1.52c.32-.23,0-.42-.29-.35a47.49,47.49,0,0,1-8.13,1.3c-.38,0-.58.5-.08.46Z"/><path class="cls-6" d="M395.11,394.91v-2.25c0-.17-.73-.05-.73.19v2.25c0,.17.73,0,.73-.19Z"/><path class="cls-6" d="M227.52,304.88a13.15,13.15,0,0,0-.65,6.25c0,.26.73.1.72-.14v-5.28c0-.32-.73-.18-.73.08l0,5.28.72-.14a12.92,12.92,0,0,1,.66-6.13c.1-.27-.63-.18-.73.08Z"/><path class="cls-6" d="M225.26,303.88A9.69,9.69,0,0,0,230,314.74a4.33,4.33,0,0,0,2.25.4,10.9,10.9,0,0,0,3.39-.75A5.81,5.81,0,0,0,238,313c.26-.32.71-1,.12-1.32a8.56,8.56,0,0,1-3-2.62l.26.37a9.25,9.25,0,0,1-1.7-6.17l0,.45a10.58,10.58,0,0,1,.22-1.23c.42-1.62-2.73-1.25-3.55-1.11a11.18,11.18,0,0,0-3.3,1.06c-.58.31-1.57.78-1.75,1.47Z"/><path class="cls-6" d="M227.12,304.49l-.64,2.44,2.79-.75a8.18,8.18,0,0,0-4.51-2.1,2.16,2.16,0,0,0-1.31.3c-.26.14-.68.43-.69.78a2.51,2.51,0,0,0,.76,2.23,2.12,2.12,0,0,0,1.21.41,3,3,0,0,0,2.16-.77.78.78,0,0,0,.26-.72.82.82,0,0,0-.59-.49,2.33,2.33,0,0,0-2.05.55,1.3,1.3,0,0,1,.41-.28c.64-.13.83-.19.56-.16h.26c.24,0,.3.05.17,0s.24.15.07,0a1.22,1.22,0,0,1-.19-.12l.2.16a1,1,0,0,1-.22-.27l.11.21a2.12,2.12,0,0,1-.21-.9v-.19l-2,1.08.14,0-.18,0a1,1,0,0,1,.24.05,3.25,3.25,0,0,1,.42.11l.45.14c.05,0,.15.09.2.08l-.14-.06.13.06a6.81,6.81,0,0,1,1.52.95l-.2-.17.33.29a1.94,1.94,0,0,0,2.79-.75l.65-2.45a.61.61,0,0,0-.32-.62,1.64,1.64,0,0,0-1-.16,1.83,1.83,0,0,0-1.63,1.08Z"/><path class="cls-6" d="M226.27,305.22a14.48,14.48,0,0,0,6.17-6.59.83.83,0,0,0-.55-1.15,2,2,0,0,0-1.79.32,54.06,54.06,0,0,0-7.65,7.17.85.85,0,0,0,.38,1.41,2,2,0,0,0,2-.55,49.2,49.2,0,0,1,7.14-6.7l-2.35-.84c-.13.3-.28.6-.44.89-.07.14-.15.27-.23.4l-.12.2s-.14.21-.07.12-.07.09-.08.11l-.17.23-.28.38a9.06,9.06,0,0,1-.64.75c-.1.12-.21.23-.32.34l-.16.16-.09.09c.11-.1-.07.06-.08.08l-.18.15-.4.34c-.25.19-.5.38-.75.55l-.44.29c-.18.11.2-.12,0,0l-.25.15c-.51.28-1.13.89-.69,1.5a1.67,1.67,0,0,0,2,.22Z"/><path class="cls-6" d="M230.9,299.48a3.27,3.27,0,0,1-.2,1.88l2.72-.46c-.79-1-1-3,.23-3.74l-2.13-.83a26.82,26.82,0,0,0,6.17,19.15l2.14-1.68-8.11-2.43c-.95-.29-2.88.4-2.15,1.68,2.12,3.69,6.88,3.58,10.55,3.18.66-.07,1.52-.46,1.59-1.22s-.75-1.1-1.37-1c-2.86.31-6.46.67-8.13-2.25l-2.14,1.69,8.12,2.43a2,2,0,0,0,1.8-.31c.37-.3.72-.93.34-1.37a25.25,25.25,0,0,1-5.87-18c.08-1.07-1.43-1.25-2.13-.83-2.33,1.42-3.44,4.62-1.56,6.89a1.74,1.74,0,0,0,2.72-.45,5.4,5.4,0,0,0,.31-3.05c-.25-1.43-3.16-.68-2.9.77Z"/><path class="cls-6" d="M255.13,285.81a35.37,35.37,0,0,1,6.66,4.36c.46.37,1.75-.29,1.13-.8a35.4,35.4,0,0,0-6.67-4.35,1,1,0,0,0-1,.1c-.21.15-.42.52-.09.69Z"/><path class="cls-6" d="M259.07,288.58a7.59,7.59,0,0,1,.69,3c0,.74,1.2.55,1.43,0l.6-1.32-1.25.33a1.48,1.48,0,0,1,.31,1.61l1.42-.1-.51-1.82c-.16-.55-1.07-.38-1.33,0a5.63,5.63,0,0,0-1.17,4c0,.36.61.37.86.31a.69.69,0,0,0,.58-.7,4.71,4.71,0,0,1,.94-3.14l-1.33,0,.51,1.82c.17.6,1.23.35,1.42-.11a2.29,2.29,0,0,0-.59-2.63.91.91,0,0,0-1.25.33l-.6,1.32,1.43,0a8.18,8.18,0,0,0-.72-3.24.69.69,0,0,0-.86-.32c-.24.07-.73.37-.58.7Z"/><path class="cls-6" d="M261,291.94c-.58-2.33-1.38-4.94-3.83-5.91-.26-.1-1.59.16-1.26.58a17.84,17.84,0,0,1,3.57,11c0,.34,1.44.1,1.45-.39a18,18,0,0,0-3.67-11.13l-1.26.59c2.3.9,3,3.49,3.55,5.66.11.42,1.56,0,1.45-.39Z"/><path class="cls-6" d="M261.82,296.33a32.85,32.85,0,0,0,1.91-6.14c.12-.6-1.34-.38-1.46.16a31.19,31.19,0,0,1-1.81,5.9c-.29.69,1.15.57,1.36.08Z"/><path class="cls-6" d="M261.37,290.87l-1.08,4.34,1.46-.13.24-3c.05-.7-1.42-.47-1.47.13l-.23,3c0,.35.38.46.65.42a.87.87,0,0,0,.81-.55l1.08-4.34c.09-.34-.42-.45-.65-.42a.87.87,0,0,0-.81.55Z"/><path class="cls-6" d="M380.09,273l-1.89,2,1.26.15a7.62,7.62,0,0,1,1-1.54l-1.4.07a1.44,1.44,0,0,1-.27.62l1.4-.07a5.29,5.29,0,0,1,.82-1.77c.17-.25-.11-.4-.32-.43a1.28,1.28,0,0,0-.94.29l-7.49,6.19,1.26.15a11.8,11.8,0,0,1,2.18-2.5c.84-.85,1.7-1.67,2.56-2.49l5.29-5c.23-.21.15-.44-.14-.52a1.24,1.24,0,0,0-1,.27c-1.81,1.7-3.62,3.4-5.43,5.12-.86.82-1.72,1.64-2.56,2.49a12.68,12.68,0,0,0-2.22,2.58c-.15.26.07.4.31.43a1.28,1.28,0,0,0,.94-.29l7.49-6.19-1.26-.15a6,6,0,0,0-.91,2c-.07.29.36.34.54.33a1.14,1.14,0,0,0,.87-.39,2.17,2.17,0,0,0,.36-.84c.06-.29-.34-.33-.53-.33a1.25,1.25,0,0,0-.87.4,7.62,7.62,0,0,0-1,1.54c-.33.65,1,.39,1.26.14l1.89-2c.21-.22.16-.44-.15-.53a1.22,1.22,0,0,0-1,.28Z"/><path class="cls-6" d="M382.61,268.27a22.52,22.52,0,0,0-2.49,5l1.44-.29a2.84,2.84,0,0,1,.27-1.79c.16-.28-.13-.38-.38-.38a1.37,1.37,0,0,0-1,.38l-1.58,1.62h1.34a12.77,12.77,0,0,1,1.49-1.71l-1.3.1a4.57,4.57,0,0,1-.31,2c-.1.27.4.28.53.27s.72-.12.86-.37a15.86,15.86,0,0,1,1.51-2.2l-1.39.2a1.64,1.64,0,0,1,0,.93c-.09.27.38.29.52.28a1.27,1.27,0,0,0,.87-.38,7,7,0,0,0,1-2.08c.09-.3-.46-.29-.62-.26a1,1,0,0,0-.83.46,2.31,2.31,0,0,1-.56.82h1.29a4.42,4.42,0,0,1,1.11-2.14c.21-.22-.12-.35-.29-.37a1.39,1.39,0,0,0-.95.28l-.68.68,1.25.09a11.3,11.3,0,0,1,3.13-3.64c.24-.18.15-.41-.13-.46a1.39,1.39,0,0,0-1,.27,12.13,12.13,0,0,0-3.32,3.84c-.32.59,1,.3,1.24.09l.68-.68-1.24-.09a4.78,4.78,0,0,0-1.22,2.33c-.12.54,1.13.15,1.29,0a3.46,3.46,0,0,0,.87-1.21l-1.45.2a6.14,6.14,0,0,1-.92,1.89l1.39-.11a2,2,0,0,0,0-1.12c-.06-.22-.47-.19-.62-.17a1.25,1.25,0,0,0-.78.37,16.38,16.38,0,0,0-1.51,2.19l1.4-.1a5.1,5.1,0,0,0,.31-2.19c0-.19-.42-.18-.53-.18a1.34,1.34,0,0,0-.77.28,15.31,15.31,0,0,0-1.68,1.91c-.2.26.17.37.38.37a1.37,1.37,0,0,0,1-.38l1.58-1.61h-1.34a3.35,3.35,0,0,0-.38,2.17c.05.26.57.19.72.16s.63-.18.73-.45a22.1,22.1,0,0,1,2.39-4.79c.18-.27-.16-.37-.38-.37a1.27,1.27,0,0,0-1,.38Z"/><path class="cls-6" d="M382.74,269.94a23.88,23.88,0,0,0-1.84,5.5c-.06.36.39.52.67.5a.85.85,0,0,0,.8-.6,21.11,21.11,0,0,0,.57-3.53l-1.47.1,0,2.15c0,.74,1.22.58,1.43.05a44.67,44.67,0,0,0,1.54-4.93l-1.46.24a8.22,8.22,0,0,1-.27,3.16c-.25.82,1.14.81,1.39.19l2.57-6.59c.31-.79-1.15-.81-1.39-.19l-2.57,6.59,1.39.19a9.45,9.45,0,0,0,.33-3.74c0-.32-.53-.37-.77-.33a.79.79,0,0,0-.69.58,39.62,39.62,0,0,1-1.46,4.64l1.43,0,0-2.15c0-.77-1.42-.57-1.47.1a21,21,0,0,1-.57,3.53l1.47-.1a22.54,22.54,0,0,1,1.76-5.21c.33-.77-1.13-.8-1.39-.19Z"/><path class="cls-6" d="M383.74,268.76c-.35,4.62-2.43,9.82.31,14.11.22.34,1.56-.22,1.45-.39-2.74-4.29-.66-9.48-.31-14.11,0-.18-1.42,0-1.45.39Z"/><path class="cls-6" d="M381.65,273.29a21.77,21.77,0,0,0-3.14,2.77l1.39-.11a3.06,3.06,0,0,1,.55-1.42c.19-.27-.17-.36-.38-.36a1.33,1.33,0,0,0-1,.38,23.64,23.64,0,0,1-2.27,2l1.29-.1a.55.55,0,0,1,0-.58c.1-.23-.32-.27-.43-.27a1.47,1.47,0,0,0-.86.28l-1.09.86,1.29-.11a1,1,0,0,1-.17-.51c-.05-.45-1.13,0-1.3.1a21.94,21.94,0,0,0-2.68,2.51c-.06.06-.1.21,0,.27a17.27,17.27,0,0,0,5.77,2.59,14.56,14.56,0,0,1,3.2.8c.86.43,1.52,1.16,2.53,1.27a1.4,1.4,0,0,0,1-.23c.15-.11.37-.35.08-.46-1.5-.56-2-2.2-2.21-3.65-.23-1.74-.31-3.51-.45-5.25,0-.45-1.36,0-1.44.29a15.85,15.85,0,0,0-.48,4.17l1.45-.39a39.65,39.65,0,0,0-.57-5.33c-.08-.44-1.38-.07-1.45.3-.2,1.16-.45,2.89-1.76,3.33l1,.06c-.21-.53-.26-.94-.89-1a2.32,2.32,0,0,0-.69.07c-.09,0-.39.05-.26.1s-.07-.11,0-.2l-1.44.3a6.76,6.76,0,0,1-.13,1.34c-.1.53,1.13.13,1.3,0l.36-.31c.22-.2.16-.39-.12-.45a1.41,1.41,0,0,0-1,.28,15,15,0,0,0-1.7,1.39l1.3,0a2.92,2.92,0,0,1,1.16-1.25l-1.17,0,.3,1.31c.11.5,1.21,0,1.39-.2l1.37-1.39-1.39.11a3.86,3.86,0,0,1-.57,1.15c-.18.23.09.33.29.35a1.3,1.3,0,0,0,.95-.28l2.32-2-1.29.1A5.53,5.53,0,0,1,379,278l1.44-.21.45-1.27-1.44.21a4.6,4.6,0,0,1-.44,1.39l1.44-.21a.69.69,0,0,1,.22-.45l-1.39.2a14.93,14.93,0,0,0,1.07,3.54l1.18-.55c-2-.28-4.24-.66-5.48-2.43l-1.26.6a41.2,41.2,0,0,1,4.68,1.64c.26.11,1.61-.16,1.25-.6a12.56,12.56,0,0,0-2.56-2.32l-1.35.55c1.42.92,2.8,1.89,4.14,2.93.3.23,1.44,0,1.4-.47a7.93,7.93,0,0,1,.52-3.7c.4-1,1.19-1.91,1.14-3.05,0-.47-1.33,0-1.44.3a10.38,10.38,0,0,1-2.19,3.46,6.31,6.31,0,0,1-.71.66l-.21.18c-.16.12-.09.09.2-.1,0-.09-.27-.5-.31-.59a4.62,4.62,0,0,1-.38-2.2l-1.44.3a1.74,1.74,0,0,1,.18.9l1.44-.3-.53-1.55c-.15-.45-1.22-.06-1.39.2a4.2,4.2,0,0,0-.92,2.22,1.71,1.71,0,0,0,1,1.6l1.17-.66-1.61-.7c-.28-.12-1.58.14-1.26.6,1.45,2.08,4.26,2.31,6.08,3.93l1.12-.64-3.2-.43a1.38,1.38,0,0,0-.95.23c-.16.12-.36.34-.08.46l3.17,1.37a1.27,1.27,0,0,0,1-.15c.18-.11.46-.37.14-.51L379.76,281l-1,.69,3.2.44c.19,0,1.54-.27,1.13-.64-1.82-1.62-4.64-1.86-6.07-3.92l-1.26.59,1.6.71a1.27,1.27,0,0,0,1-.15c.18-.11.45-.37.15-.51-1.35-.61-.45-2.35.1-3.17l-1.4.2.54,1.55c.14.42,1.41.09,1.44-.3a2,2,0,0,0-.18-1.08c-.18-.39-1.41-.12-1.44.3a4.81,4.81,0,0,0,.66,2.94c.55.86,1.66.49,2.34,0a10.82,10.82,0,0,0,3.48-4.74l-1.45.3a3.12,3.12,0,0,1-.54,1.65,10,10,0,0,0-.73,1.59,8.37,8.37,0,0,0-.39,3.51l1.4-.47q-2-1.54-4.14-2.93a1.09,1.09,0,0,0-.95,0c-.11,0-.66.35-.4.53a12,12,0,0,1,2.56,2.32l1.26-.6a42.4,42.4,0,0,0-4.67-1.65c-.26-.07-1.6.11-1.26.6,1.32,1.89,3.8,2.32,5.93,2.61.21,0,1.36-.15,1.17-.56a14.93,14.93,0,0,1-1.07-3.54c-.09-.5-1.23,0-1.39.21a1,1,0,0,0-.33.64c-.08.56,1.28.12,1.44-.21a4.26,4.26,0,0,0,.44-1.39c.08-.53-1.3-.18-1.44.21L379,278c-.15.44,1.27.21,1.44-.21a5.86,5.86,0,0,0,.45-2.3c0-.44-1.15,0-1.29.1l-2.33,2.05,1.24.08a4.46,4.46,0,0,0,.68-1.34c.09-.26-.38-.27-.52-.26a1.35,1.35,0,0,0-.87.37l-1.37,1.39,1.39-.2-.29-1.31c-.08-.4-1-.09-1.16,0a4.26,4.26,0,0,0-1.73,1.81c-.11.22.33.27.43.27a1.36,1.36,0,0,0,.87-.29,13.38,13.38,0,0,1,1.7-1.39l-1.15-.17-.36.31,1.3,0a8.59,8.59,0,0,0,.13-1.52c0-.45-1.34,0-1.45.29s.32.68.69.74a1.86,1.86,0,0,0,.81-.08l.25-.07-.11.05a2.13,2.13,0,0,1,.23.56c.14.33.78.13,1,.06,1.81-.61,2.36-2.34,2.66-4.05l-1.45.3a39.65,39.65,0,0,1,.57,5.33c0,.4,1.45.12,1.45-.39a14.8,14.8,0,0,1,.47-4l-1.45.29c.16,1.88.2,3.81.51,5.67a4.22,4.22,0,0,0,2.44,3.51l1-.69c-.93-.1-1.61-.92-2.45-1.29a15,15,0,0,0-2.89-.7,16,16,0,0,1-5.71-2.5v.27a19.58,19.58,0,0,1,2.5-2.32l-1.3.1a1,1,0,0,0,.17.52c.24.39,1,.11,1.3-.1l1.09-.86h-1.29a.74.74,0,0,0,0,.76c.23.4,1,.11,1.29-.1a26.7,26.7,0,0,0,2.47-2.16l-1.34,0a3.46,3.46,0,0,0-.65,1.61c-.08.6,1.21.08,1.39-.11a20.65,20.65,0,0,1,2.94-2.59c.25-.18.14-.39-.12-.44a1.39,1.39,0,0,0-1,.27Z"/><path class="cls-6" d="M405.76,261.92a23,23,0,0,1,1.58,6.52c.17,2.28.1,4.56.49,6.82.07.4,1.52.07,1.45-.39-.39-2.25-.32-4.54-.49-6.82a23,23,0,0,0-1.58-6.52c-.16-.43-1.59,0-1.45.39Z"/><path class="cls-6" d="M406.57,262.41a23.55,23.55,0,0,0,3.81,1.86c.34.13.67.24,1,.35s.77.16.94.47c.28.52-.61,1.64-.85,2.1a87,87,0,0,0-3.85,8.25c-.12.28,1.27.15,1.43-.24a87,87,0,0,1,4.08-8.69c.26-.47.86-1.19.67-1.76s-1-.63-1.46-.79a22.46,22.46,0,0,1-4.42-2,1.19,1.19,0,0,0-.94.06c-.08,0-.66.3-.42.44Z"/><path class="cls-6" d="M407.8,264.28a54.32,54.32,0,0,0,.46,7.21c.09.66,1.22.21,1.42-.12a6.17,6.17,0,0,0,.65-2,3.19,3.19,0,0,1,.75-1.84l-1.21-.26a15.62,15.62,0,0,1-.85,2.75l1.39.15,1-2.53c.25-.63.83-1.56.6-2.27a3.54,3.54,0,0,0-1.45-1.47,6.55,6.55,0,0,0-2-.89,1,1,0,0,0-1,.22c-.18.16-.32.52,0,.67a12.65,12.65,0,0,1,1.39.78c.35.23,1.2.67,1.33,1.09.06.22.1,0,0,.16s-.2.13-.26.17a2.47,2.47,0,0,0-.51.46,2.74,2.74,0,0,0-.63,1.26l1.47-.12v-2.05c0-.74-1.46-.51-1.46.12l0,1.67c0,.78,1.16.41,1.42,0a4.24,4.24,0,0,0,.48-1.3c0-.08.16-.72.29-.71-.1,0,0,.17,0,.26a5.61,5.61,0,0,1-.52,1.66c-.19.52-.38,1.05-.58,1.57q-1.22,3.18-2.72,6.23c-.36.73,1.1.71,1.38.15a72.63,72.63,0,0,0,3.63-8.75c.18-.54.46-1.2.09-1.73a1.4,1.4,0,0,0-1.43-.41,2,2,0,0,0-1.35,1,16.22,16.22,0,0,1-.66,1.85h1.43v-1.67l-1.46.12,0,2.05c0,.77,1.33.47,1.47-.12s.54-.85,1-1.22a1,1,0,0,0,.28-1.28,4.34,4.34,0,0,0-1.25-1.12,12.24,12.24,0,0,0-1.72-1l-1,.89a5.31,5.31,0,0,1,1.62.7c.39.25,1.26.78,1.23,1.32a3.44,3.44,0,0,1-.36,1l-.37.95-.82,2.11c-.29.77,1.15.73,1.39.15a18.78,18.78,0,0,0,.92-3c.13-.61-.94-.49-1.21-.26-1.33,1.16-1,2.9-1.82,4.3l1.41-.12a53.56,53.56,0,0,1-.45-6.94c0-.74-1.46-.51-1.46.12Z"/></svg>